<svg width="111" height="117" viewBox="0 0 111 117" fill="none" xmlns="http://www.w3.org/2000/svg">
<path fill-rule="evenodd" clip-rule="evenodd" d="M38.2085 92.0488C18.046 74.024 9.79709 50.5314 21.4725 28.5881C35.4667 2.28663 40.2586 41.7259 61.7481 34.7427C83.2375 27.7594 111.87 45.1173 97.2249 76.0458C83.5156 104.999 58.3711 110.074 38.2085 92.0488Z" fill="#5FD788"/>
<path d="M83.2337 42.8573H39.3493C38.1856 42.8573 37.0688 42.3556 36.2461 41.4627C35.4234 40.5699 34.9609 39.3581 34.9609 38.0955V28.5717C34.9609 27.6951 35.6159 26.9844 36.4238 26.9844H86.1594C86.5473 26.9844 86.9195 27.1516 87.1938 27.4492C87.4681 27.7468 87.6222 28.1508 87.6222 28.5717V38.0955C87.6222 39.3582 87.1599 40.57 86.337 41.4627C85.5142 42.3554 84.3974 42.8573 83.2338 42.8573H83.2337ZM37.8865 30.1589V38.0954C37.8865 38.5163 38.0406 38.9202 38.3149 39.2178C38.5892 39.5155 38.9614 39.6827 39.3493 39.6827H83.2337C83.6216 39.6827 83.9938 39.5155 84.2681 39.2178C84.5424 38.9202 84.6965 38.5163 84.6965 38.0954V30.1589H37.8865Z" fill="#424B25"/>
<path d="M83.2275 100.001H39.3431C38.8214 99.9992 38.3401 99.6973 38.0795 99.207C37.6537 98.4133 27.6407 79.6442 27.6407 66.6664C27.6309 62.8703 28.5804 59.1437 30.3854 55.8918C32.1911 52.6399 34.7831 49.9868 37.8804 48.2218V41.2696H40.806V49.2061C40.806 49.841 40.4573 50.415 39.9198 50.6651C37.1261 52.1001 34.7647 54.3649 33.1093 57.1972C31.4539 60.0295 30.5722 63.3126 30.5664 66.6664C30.5664 77.373 38.3107 93.1426 40.1962 96.8251H82.3754C84.2606 93.1424 92.0052 77.3621 92.0052 66.6664C91.9986 63.3111 91.1157 60.0266 89.459 57.1943C87.8016 54.362 85.4382 52.0971 82.6432 50.6629C82.1096 50.4107 81.7648 49.8381 81.7655 49.206V41.2695H84.6911V48.2217C87.7884 49.9869 90.3804 52.6399 92.1861 55.8918C93.9911 59.1436 94.9407 62.8703 94.9308 66.6664C94.9308 79.644 84.9176 98.4124 84.492 99.2069C84.2314 99.6973 83.7501 99.9992 83.2284 100.001L83.2275 100.001Z" fill="#424B25"/>
<path d="M78.8434 92.0636H43.7359C43.1207 92.0636 42.5715 91.6462 42.3606 91.0191C42.1268 90.2956 36.4219 73.2016 36.4219 65.0799C36.4375 62.4536 37.2911 59.914 38.8381 57.8938C40.3851 55.8737 42.5297 54.4981 44.9062 54.0007C45.0022 53.9787 45.1002 53.9681 45.1988 53.9688H77.3806C77.4793 53.9681 77.5772 53.9787 77.6732 54.0007C80.0497 54.4981 82.1942 55.8735 83.7413 57.8938C85.2884 59.9141 86.1418 62.4538 86.1575 65.0799C86.1575 73.2019 80.4525 90.2953 80.2188 91.0191C80.0079 91.6462 79.4587 92.0636 78.8435 92.0636H78.8434ZM44.7707 88.889H77.8086C79.048 85.0397 83.2315 71.5591 83.2315 65.0795C83.2178 63.2101 82.6137 61.4024 81.5193 59.9576C80.4254 58.5135 78.9084 57.5199 77.2209 57.1429H45.3617C43.6789 57.5306 42.1671 58.5269 41.0739 59.9689C39.9813 61.4109 39.372 63.213 39.3466 65.0795C39.3466 71.5591 43.5299 85.0395 44.7695 88.889H44.7707Z" fill="#424B25"/>
<path d="M70.0634 92.0636H52.5097C51.7019 92.0636 51.0469 91.3529 51.0469 90.4763V80.9525C51.0469 80.076 51.7019 79.3652 52.5097 79.3652H70.0634C70.4513 79.3652 70.8236 79.5325 71.0979 79.8301C71.3721 80.1277 71.5263 80.5316 71.5263 80.9525V90.4763C71.5263 90.8973 71.3721 91.3012 71.0979 91.5988C70.8236 91.8964 70.4513 92.0636 70.0634 92.0636ZM53.9725 88.889H68.6006V82.5398H53.9725V88.889Z" fill="#424B25"/>
<path d="M61.2888 76.1895C59.7371 76.1895 58.2488 75.5206 57.1511 74.3301C56.054 73.1389 55.4375 71.5239 55.4375 69.8403C55.4375 66.7593 59.4046 61.8053 60.2001 60.8437C60.4848 60.522 60.8779 60.3398 61.2887 60.3398C61.6995 60.3398 62.0926 60.522 62.3773 60.8437C63.1727 61.8053 67.1399 66.7591 67.1399 69.8403C67.1399 71.524 66.5234 73.139 65.4263 74.3301C64.3286 75.5206 62.8402 76.1895 61.2887 76.1895H61.2888ZM61.2888 64.3628C59.7365 66.4674 58.3631 68.8292 58.3631 69.8403C58.3631 70.9748 58.9208 72.0228 59.8259 72.5897C60.7311 73.1566 61.8465 73.1566 62.7516 72.5897C63.6567 72.0228 64.2144 70.9748 64.2144 69.8403C64.2144 68.856 62.8423 66.4765 61.2888 64.3628Z" fill="#424B25"/>
<path d="M59.8281 74.6035H62.7538V80.9527H59.8281V74.6035Z" fill="#424B25"/>
<path d="M53.9762 19.0476H51.0505C51.0505 18.1555 50.7332 17.7778 50.0161 16.9956C48.8198 15.9468 48.125 14.3673 48.125 12.6984C48.125 11.0295 48.8198 9.45016 50.0161 8.40127C50.7332 7.61896 51.0505 7.24127 51.0505 6.34921C51.0505 5.45714 50.7332 5.07936 50.0161 4.29714C48.8341 3.23634 48.1419 1.66458 48.125 0H51.0506C51.0506 0.892154 51.368 1.26984 52.085 2.05206C53.267 3.11287 53.9593 4.68463 53.9762 6.34921C53.9592 8.01375 53.267 9.58549 52.085 10.6463C51.368 11.4287 51.0506 11.8063 51.0506 12.6984C51.0506 13.5905 51.368 13.9683 52.085 14.7505C53.267 15.8113 53.9593 17.383 53.9762 19.0476Z" fill="#424B25"/>
<path d="M64.2105 19.0476H61.2849C61.2849 18.1555 60.9675 17.7778 60.2505 16.9956C59.0541 15.9468 58.3594 14.3673 58.3594 12.6984C58.3594 11.0295 59.0542 9.45016 60.2505 8.40127C60.9675 7.61896 61.2849 7.24127 61.2849 6.34921C61.2849 5.45714 60.9675 5.07936 60.2505 4.29714C59.0685 3.23634 58.3763 1.66458 58.3594 0H61.285C61.285 0.892154 61.6024 1.26984 62.3194 2.05206C63.5014 3.11287 64.1937 4.68463 64.2105 6.34921C64.1936 8.01375 63.5013 9.58549 62.3194 10.6463C61.6024 11.4287 61.285 11.8063 61.285 12.6984C61.285 13.5905 61.6024 13.9683 62.3194 14.7505C63.5014 15.8113 64.1937 17.383 64.2105 19.0476Z" fill="#424B25"/>
<path d="M74.4527 19.0476H71.5271C71.5271 18.1555 71.2097 17.7778 70.4927 16.9956C69.2963 15.9468 68.6016 14.3673 68.6016 12.6984C68.6016 11.0295 69.2964 9.45016 70.4927 8.40127C71.2097 7.61896 71.5271 7.24127 71.5271 6.34921C71.5271 5.45714 71.2097 5.07936 70.4927 4.29714C69.3107 3.23634 68.6184 1.66458 68.6016 0H71.5272C71.5272 0.892154 71.8446 1.26984 72.5616 2.05206C73.7436 3.11287 74.4358 4.68463 74.4527 6.34921C74.4358 8.01375 73.7435 9.58549 72.5616 10.6463C71.8446 11.4287 71.5272 11.8063 71.5272 12.6984C71.5272 13.5905 71.8446 13.9683 72.5616 14.7505C73.7436 15.8113 74.4358 17.383 74.4527 19.0476Z" fill="#424B25"/>
<path d="M36.4219 33.334H81.7691V36.5086H36.4219V33.334Z" fill="#424B25"/>
</svg>
