<svg width="45" height="50" viewBox="0 0 45 50" fill="none" xmlns="http://www.w3.org/2000/svg">
<path d="M9.81415 47.4389C10.8981 47.4389 11.7767 46.5602 11.7767 45.4763C11.7767 44.3924 10.8981 43.5137 9.81415 43.5137C8.73024 43.5137 7.85156 44.3924 7.85156 45.4763C7.85156 46.5602 8.73024 47.4389 9.81415 47.4389Z" fill="#1F2937"/>
<path d="M23.5485 47.4389C24.6324 47.4389 25.5111 46.5602 25.5111 45.4763C25.5111 44.3924 24.6324 43.5137 23.5485 43.5137C22.4646 43.5137 21.5859 44.3924 21.5859 45.4763C21.5859 46.5602 22.4646 47.4389 23.5485 47.4389Z" fill="#1F2937"/>
<path d="M27.4763 24.8696H5.71114L4.90648 20.7481C4.8606 20.5231 4.73728 20.3214 4.55798 20.1779C4.37868 20.0345 4.15475 19.9585 3.92518 19.9631H0V21.9257H3.12052L6.86907 40.7666C6.91495 40.9916 7.03827 41.1933 7.21757 41.3368C7.39687 41.4802 7.6208 41.5562 7.85037 41.5516H25.5137V39.589H8.65503L7.85037 35.6638H25.5137C25.7405 35.6694 25.9623 35.5961 26.1412 35.4566C26.3201 35.317 26.4451 35.1198 26.495 34.8984L28.4576 26.0668C28.4905 25.9212 28.4897 25.77 28.4553 25.6247C28.421 25.4794 28.354 25.3439 28.2593 25.2285C28.1647 25.1131 28.045 25.0207 27.9093 24.9585C27.7736 24.8963 27.6255 24.8659 27.4763 24.8696ZM24.7287 33.7012H7.47748L6.10366 26.8322H26.2497L24.7287 33.7012Z" fill="#1F2937"/>
<path d="M35.0674 28.2529C35.7852 28.2529 36.2539 27.7109 36.2539 26.9932V21.8516H41.1025C41.8203 21.8516 42.3623 21.3828 42.3623 20.665C42.3623 19.9473 41.8203 19.4785 41.1025 19.4785H36.2539V14.3223C36.2539 13.6045 35.7852 13.0625 35.0674 13.0625C34.3496 13.0625 33.8809 13.6045 33.8809 14.3223V19.4785H29.0176C28.2998 19.4785 27.7578 19.9473 27.7578 20.665C27.7578 21.3828 28.2998 21.8516 29.0176 21.8516H33.8809V26.9932C33.8809 27.7109 34.3496 28.2529 35.0674 28.2529Z" fill="#1F2937"/>
</svg>
