<svg width="111" height="116" viewBox="0 0 111 116" fill="none" xmlns="http://www.w3.org/2000/svg">
<path fill-rule="evenodd" clip-rule="evenodd" d="M38.2085 91.0488C18.046 73.024 9.79709 49.5314 21.4725 27.5881C35.4667 1.28663 40.2586 40.7259 61.7481 33.7427C83.2375 26.7594 111.87 44.1173 97.2249 75.0458C83.5156 103.999 58.3711 109.074 38.2085 91.0488Z" fill="white"/>
<path d="M88.3964 58.6779H82.6844C81.9486 58.6779 81.3516 58.03 81.3516 57.2316V50.0004C81.3516 47.4937 83.2305 45.4551 85.5404 45.4551C87.8503 45.4551 89.7292 47.4939 89.7292 50.0004V57.2316C89.7292 58.03 89.1321 58.6779 88.3964 58.6779H88.3964ZM84.0172 55.7854H87.0636V50.0004C87.0636 49.0891 86.3802 48.3475 85.5404 48.3475C84.7006 48.3475 84.0172 49.0891 84.0172 50.0004V55.7854Z" fill="#424B25"/>
<path d="M55.0752 100H55.0745L54.8718 99.9997C47.527 99.9436 40.5948 96.7951 35.3535 91.1347C30.1106 85.4743 27.1755 77.9679 27.088 69.9988C26.9717 59.4115 31.8196 49.6921 40.0566 43.9987C45.0493 40.5469 48.0305 34.6814 48.0305 28.3076C48.0305 27.5092 48.6275 26.8613 49.3633 26.8613H60.7876C61.5234 26.8613 62.1204 27.5092 62.1204 28.3076C62.1204 34.6946 65.0859 40.5499 70.0534 43.97C74.5008 47.0322 78.051 51.3688 80.3251 56.5148C80.4366 56.7258 80.5005 56.9715 80.5005 57.2327C80.5005 57.9994 79.9511 58.6266 79.2561 58.676L79.2568 61.9848H81.1153C81.7416 61.9848 82.2843 62.4585 82.4176 63.1226C82.4665 63.3669 82.5148 63.6111 82.5577 63.8568C82.6284 64.2575 82.5407 64.6714 82.3149 64.9976L77.3528 72.1773V87.5231C77.3528 87.8477 77.2522 88.1635 77.0665 88.4188C71.7188 95.7785 63.7028 100.001 55.0762 100.001L55.0752 100ZM50.651 29.7526C50.2328 36.5538 46.8742 42.7143 41.4877 46.437C34.0348 51.5888 29.6472 60.3838 29.7527 69.9644C29.9159 84.8254 41.1926 97.0015 54.8905 97.1073L55.0741 97.108C62.7277 97.108 69.8488 93.4356 74.6864 87.0144V71.695C74.6864 71.3822 74.7796 71.0774 74.953 70.8273L79.0657 64.877H77.9233C77.1875 64.877 76.5904 64.2291 76.5904 63.4307V57.2325C76.5904 56.7647 76.7945 56.3493 77.112 56.0851C75.0625 52.1625 72.156 48.8442 68.624 46.4122C63.2587 42.7182 59.9137 36.5673 59.4975 29.7535L50.651 29.7526Z" fill="#424B25"/>
<path d="M89.9199 100H81.1613C77.5919 100 74.6875 96.8489 74.6875 92.9757V71.6943C74.6875 70.8959 75.2846 70.248 76.0203 70.248H95.0617C95.7974 70.248 96.3945 70.8959 96.3945 71.6943V92.9757C96.3945 96.8489 93.4901 100 89.9206 100H89.9199ZM77.3531 73.1409V92.9753C77.3531 95.2538 79.0613 97.1075 81.1612 97.1075H89.9197C92.0195 97.1075 93.7278 95.2539 93.7278 92.9753V73.1409H77.3531Z" fill="#424B25"/>
<path d="M95.0616 73.1412H76.0202C75.5157 73.1412 75.0539 72.8321 74.8281 72.3421C74.6024 71.8521 74.6513 71.2655 74.9539 70.8272L80.666 62.5629C80.9176 62.1991 81.3127 61.9844 81.7323 61.9844H89.3485C89.768 61.9844 90.1631 62.1984 90.4147 62.5629L96.1268 70.8272C96.4294 71.2655 96.4783 71.8521 96.2526 72.3421C96.0268 72.832 95.5651 73.1412 95.0605 73.1412H95.0616ZM78.6868 70.2488H92.396L88.6831 64.8769H82.3997L78.6868 70.2488Z" fill="#424B25"/>
<path d="M93.1589 64.8758H77.9266C77.1908 64.8758 76.5938 64.2279 76.5938 63.4296V57.2314C76.5938 56.433 77.1908 55.7852 77.9266 55.7852H93.1589C93.8947 55.7852 94.4918 56.433 94.4918 57.2314V63.4296C94.4918 64.228 93.8947 64.8758 93.1589 64.8758ZM79.2594 61.9834H91.8262V58.6777H79.2594V61.9834Z" fill="#424B25"/>
<path d="M102.679 99.9999H16.9969C16.2611 99.9999 15.6641 99.3521 15.6641 98.5537C15.6641 97.7553 16.2611 97.1074 16.9969 97.1074H102.679C103.415 97.1074 104.012 97.7553 104.012 98.5537C104.012 99.3521 103.415 99.9999 102.679 99.9999Z" fill="#424B25"/>
<path d="M58.888 29.752H51.2718C50.536 29.752 49.939 29.1041 49.939 28.3057V21.8964C48.7034 22.9619 47.1658 23.5537 45.5597 23.5537C43.655 23.5537 41.8782 22.742 40.5616 21.2973C40.0148 21.4242 39.4572 21.4877 38.8955 21.4877C34.4856 21.4877 30.8984 17.5954 30.8984 12.81C30.8984 8.02463 34.4854 4.13236 38.8955 4.13236C40.7676 4.13236 42.5724 4.85548 43.9929 6.12827C45.6501 3.61062 48.3415 2.06618 51.2717 2.06618C53.3193 2.06618 55.26 2.81144 56.8241 4.15956C58.2535 1.63303 60.8308 0 63.648 0C67.246 0 70.2897 2.55524 71.2935 6.11939C72.5699 4.8672 74.2522 4.13217 76.0244 4.13217C79.9086 4.13217 83.0694 7.56107 83.0694 11.7767C83.0694 15.9924 79.9087 19.4213 76.0244 19.4213C74.765 19.4213 73.5593 19.0664 72.5006 18.4001C70.9705 21.511 67.9417 23.5534 64.6001 23.5534C63.0504 23.5534 61.5447 23.1166 60.2208 22.3101V28.3054C60.2208 29.1038 59.6238 29.7516 58.888 29.7516L58.888 29.752ZM52.6046 26.8596H57.5552V19.308C57.5552 18.7066 57.8986 18.1679 58.4168 17.9554C58.9356 17.7429 59.5211 17.9008 59.8876 18.3517C61.0811 19.8193 62.7988 20.6613 64.6001 20.6613C67.3983 20.6613 69.8844 18.6218 70.6455 15.7012C70.7754 15.2039 71.1399 14.8194 71.6016 14.6925C72.064 14.5656 72.553 14.7161 72.8848 15.0873C73.7165 16.017 74.8318 16.5291 76.0244 16.5291C78.4391 16.5291 80.4037 14.3974 80.4037 11.7772C80.4037 9.15694 78.4391 7.02522 76.0244 7.02522C74.3387 7.02522 72.7835 8.09516 72.0619 9.75179C71.8586 10.2189 71.4411 10.5325 70.9671 10.5753C70.4938 10.6173 70.0334 10.3834 69.7621 9.95914C69.6227 9.74147 69.4697 9.5297 69.3058 9.32973C69.1031 9.08106 68.9855 8.76377 68.9726 8.43246C68.8536 5.32601 66.5143 2.89318 63.648 2.89318C61.2911 2.89318 59.1857 4.60729 58.5289 7.06219C58.3902 7.5824 57.9944 7.97421 57.5048 8.07825C57.0145 8.1823 56.5127 7.98012 56.2033 7.55584C55.0017 5.90591 53.2043 4.95923 51.2718 4.95923C48.753 4.95923 46.4852 6.58554 45.4938 9.10179C45.3061 9.57919 44.896 9.9105 44.4207 9.97029C43.9454 10.0308 43.4768 9.80795 43.1939 9.38958C42.1916 7.90938 40.5848 7.02531 38.8956 7.02531C35.9559 7.02531 33.5643 9.62041 33.5643 12.8104C33.5643 16.0003 35.9559 18.5954 38.8956 18.5954C39.473 18.5954 40.0442 18.4943 40.5929 18.2943C41.1336 18.0973 41.7306 18.2958 42.0767 18.788C42.9138 19.9789 44.1835 20.6615 45.5598 20.6615C46.8498 20.6615 48.0691 20.0468 48.9041 18.9754C49.2115 18.5814 49.6889 18.3947 50.1567 18.4862C50.5307 18.5592 50.9054 18.5954 51.272 18.5954C52.0077 18.5954 52.6048 19.2433 52.6048 20.0416L52.6046 26.8596Z" fill="#424B25"/>
<path d="M55.0762 91.7348C43.8424 91.7348 34.7031 81.8176 34.7031 69.6279C34.7031 68.8295 35.3002 68.1816 36.0359 68.1816C36.7717 68.1816 37.3688 68.8295 37.3688 69.6279C37.3688 80.2225 45.3128 88.8427 55.0766 88.8427C55.8124 88.8427 56.4094 89.4906 56.4094 90.289C56.4094 91.0873 55.8124 91.7352 55.0766 91.7352L55.0762 91.7348Z" fill="#424B25"/>
<path d="M55.0784 66.9419C52.2434 66.9419 49.9375 64.4398 49.9375 61.3635C49.9375 58.2873 52.2434 55.7852 55.0784 55.7852C57.9133 55.7852 60.2193 58.2873 60.2193 61.3635C60.2193 64.4398 57.9133 66.9419 55.0784 66.9419ZM55.0784 58.6776C53.7136 58.6776 52.6031 59.8826 52.6031 61.3635C52.6031 62.8445 53.7135 64.0495 55.0784 64.0495C56.4432 64.0495 57.5537 62.8445 57.5537 61.3635C57.5537 59.8826 56.4432 58.6776 55.0784 58.6776Z" fill="#424B25"/>
<path d="M63.6476 87.6019C60.2876 87.6019 57.5547 84.6363 57.5547 80.9904C57.5547 77.3444 60.2876 74.3789 63.6476 74.3789C67.0076 74.3789 69.7406 77.3444 69.7406 80.9904C69.7406 84.6363 67.0076 87.6019 63.6476 87.6019ZM63.6476 77.2713C61.758 77.2713 60.2203 78.9397 60.2203 80.9904C60.2203 83.0411 61.7578 84.7094 63.6476 84.7094C65.5375 84.7094 67.075 83.0411 67.075 80.9904C67.075 78.9397 65.5375 77.2713 63.6476 77.2713Z" fill="#424B25"/>
<path d="M95.0595 89.6698H81.7313C80.9955 89.6698 80.3984 89.022 80.3984 88.2236C80.3984 87.4252 80.9955 86.7773 81.7313 86.7773H95.0595C95.7953 86.7773 96.3923 87.4252 96.3923 88.2236C96.3923 89.022 95.7953 89.6698 95.0595 89.6698Z" fill="#424B25"/>
</svg>
