<svg width="103" height="101" viewBox="0 0 103 101" fill="none" xmlns="http://www.w3.org/2000/svg">
<path fill-rule="evenodd" clip-rule="evenodd" d="M42.4252 84.0226C18.6504 72.2745 5.0791 51.8991 11.1227 27.4245C18.3666 -1.91093 32.4024 34.8387 51.494 22.0582C70.5856 9.27771 102.382 18.0029 95.6135 51.9904C89.2773 83.807 66.2 95.7706 42.4252 84.0226Z" fill="#5FD788"/>
<path d="M35.8246 51.1711H66.6489V67.8948H69.7313V41.1369C69.7292 39.363 69.079 37.6629 67.9238 36.4087C66.7678 35.1552 65.2012 34.4497 63.5664 34.4474H62.0252V31.1026H63.5664C63.9751 31.1026 64.3673 30.9264 64.6563 30.6129C64.9453 30.2993 65.1077 29.8737 65.1077 29.4302V19.396C65.1077 18.9525 64.9453 18.527 64.6563 18.2134C64.3673 17.8998 63.9751 17.7236 63.5664 17.7236H57.4016V7.6894C57.4016 5.29953 56.2264 3.09104 54.3192 1.89591C52.4119 0.701362 50.0615 0.701362 48.1543 1.89591C46.2471 3.09121 45.0719 5.29972 45.0719 7.6894V17.7236H38.907C38.0559 17.7236 37.3658 18.4725 37.3658 19.396V29.4302C37.3658 29.8737 37.5282 30.2993 37.8172 30.6129C38.1062 30.9264 38.4983 31.1026 38.907 31.1026H40.4483V34.4474H38.907C37.2723 34.4496 35.7055 35.1551 34.5497 36.4087C33.3945 37.663 32.7443 39.363 32.7422 41.1369V82.9462H35.8246V51.1711ZM48.1543 7.6894C48.1543 6.4941 48.7419 5.38993 49.6955 4.79266C50.6492 4.19538 51.8243 4.19538 52.778 4.79266C53.7316 5.38993 54.3192 6.49414 54.3192 7.6894V17.7236H48.1543V7.6894ZM40.4483 21.0684H62.0252V27.7579H40.4483V21.0684ZM43.5307 31.1026H58.9428V34.4474H43.5307V31.1026ZM38.907 37.7921H63.5664C64.3838 37.7929 65.1668 38.146 65.7448 38.7731C66.3227 39.4003 66.6481 40.2499 66.6488 41.1368V47.8263H35.8246V41.1368C35.8253 40.2499 36.1507 39.4002 36.7287 38.7731C37.3066 38.146 38.0897 37.7929 38.907 37.7921Z" fill="#424B25"/>
<path d="M93.7013 81.1257C93.4103 79.3802 92.4931 77.8318 91.1508 76.8194C89.8092 75.8078 88.1517 75.4143 86.5424 75.7264L77.4416 77.5033L76.3504 70.9199H76.3497C76.2775 70.4831 76.0484 70.0956 75.7126 69.8425C75.3768 69.5894 74.9626 69.4909 74.5601 69.5693L65.4587 71.3462C65.0569 71.4246 64.6991 71.6739 64.4658 72.0383C64.2326 72.4018 64.1425 72.852 64.2147 73.2888L64.4872 74.9343L59.9364 75.8228H59.9371C59.0991 75.9863 58.5425 76.856 58.6932 77.7646L59.2477 81.1094L18.4875 90.5985C16.9532 90.9554 15.6823 92.1148 15.094 93.6938C14.5064 95.2729 14.6791 97.0648 15.5543 98.478C16.4295 99.8912 17.8936 100.741 19.463 100.747C19.6962 100.747 19.9295 100.728 20.1607 100.692L61.4141 94.1693L61.9686 97.5156H61.9679C62.0409 97.9516 62.27 98.3391 62.6058 98.5922C62.9415 98.8453 63.3557 98.9438 63.7582 98.8655L68.3089 97.977L68.5814 99.6225C68.6537 100.059 68.8828 100.447 69.2186 100.7C69.5543 100.953 69.9692 101.051 70.3717 100.972L79.4724 99.1955C80.3105 99.032 80.8671 98.1629 80.7164 97.2536L79.6252 90.6702L88.7266 88.8933C90.3353 88.579 91.7636 87.5837 92.6966 86.1271C93.6296 84.6705 93.9915 82.8712 93.7018 81.1249L93.7013 81.1257ZM19.7161 97.3821C18.8375 97.521 18.0153 96.8797 17.8584 95.9315C17.7008 94.9833 18.265 94.071 19.1333 93.8694L59.7949 84.4042L60.8682 90.8763L19.7161 97.3821ZM64.7301 95.2774L62.0013 78.818L65.035 78.226L67.7637 94.6854L64.7301 95.2774ZM71.3435 97.385L67.5229 74.3426L73.5914 73.1585L77.4115 96.2009L71.3435 97.385ZM90.1657 84.2187C89.7013 84.9489 88.9864 85.4469 88.1813 85.6014L79.0799 87.3783L77.9887 80.7949L87.0894 79.018H87.0901C87.8944 78.8612 88.7235 79.0576 89.3943 79.5638C90.0652 80.07 90.5241 80.8449 90.6686 81.7184C90.8131 82.5911 90.6321 83.4908 90.1656 84.2187L90.1657 84.2187Z" fill="#424B25"/>
<path d="M51.2373 56.1875C50.7804 56.1875 50.3469 56.4077 50.0545 56.7878C48.9647 58.2041 43.5312 65.4728 43.5312 69.5664C43.5312 72.5536 45.0002 75.3144 47.3843 76.8077C49.7683 78.3016 52.7063 78.3016 55.0903 76.8077C57.4744 75.3145 58.9434 72.5536 58.9434 69.5664C58.9434 65.4728 53.5106 58.204 52.4201 56.7878C52.1277 56.4077 51.6942 56.1875 51.2373 56.1875H51.2373ZM55.8609 69.5665C55.8609 71.3591 54.9795 73.015 53.5491 73.9116C52.1187 74.8075 50.3559 74.8075 48.9255 73.9116C47.495 73.0149 46.6136 71.3591 46.6136 69.5665C46.6136 67.7717 49.0327 63.6639 51.2373 60.5408C53.4418 63.6639 55.8609 67.7716 55.8609 69.5665Z" fill="#424B25"/>
<path d="M60.4844 54.5156H63.5668V57.8604H60.4844V54.5156Z" fill="#424B25"/>
</svg>
