<svg width="15" height="16" viewBox="0 0 15 16" fill="none" xmlns="http://www.w3.org/2000/svg">
<path d="M14.0493 14.5527L13.4942 4.48784H10.7214V3.67528C10.7214 1.64864 9.07272 0 7.04616 0C5.0196 0 3.37096 1.64872 3.37096 3.67528V4.48784H0.478081L0.000561102 14.5962L7.77038e-05 14.6138C-0.0038423 14.9775 0.140719 15.3346 0.396479 15.5929C0.652319 15.8515 1.00776 16 1.37168 16H12.6798C13.0548 16 13.418 15.8438 13.676 15.5712C13.9339 15.2986 14.07 14.9274 14.0493 14.5527V14.5527ZM4.32952 3.67528C4.32952 2.17728 5.54816 0.95856 7.04616 0.95856C8.54408 0.95856 9.7628 2.17728 9.7628 3.67528V4.48784H4.32944V3.67528H4.32952ZM12.9798 14.9122C12.9019 14.9942 12.7926 15.0414 12.6797 15.0414H1.3716C1.262 15.0414 1.15504 14.9967 1.07784 14.9186C1.00248 14.8426 0.959201 14.7381 0.958481 14.6309L1.39232 5.4464H3.3708V6.66024C3.3708 6.92496 3.58536 7.13952 3.85008 7.13952C4.1148 7.13952 4.32936 6.92496 4.32936 6.66024V5.4464H9.76272V6.66024C9.76272 6.92496 9.97728 7.13952 10.242 7.13952C10.5067 7.13952 10.7212 6.92496 10.7212 6.66024V5.4464H12.5869L13.0919 14.6056C13.0984 14.7184 13.0574 14.8302 12.9798 14.9122Z" fill="black"/>
</svg>
