<svg width="111" height="113" viewBox="0 0 111 113" fill="none" xmlns="http://www.w3.org/2000/svg">
<path fill-rule="evenodd" clip-rule="evenodd" d="M38.2085 88.0488C18.046 70.024 9.79709 46.5314 21.4725 24.5881C35.4667 -1.71337 40.2586 37.7259 61.7481 30.7427C83.2375 23.7594 111.87 41.1173 97.2249 72.0458C83.5156 100.999 58.3711 106.074 38.2085 88.0488Z" fill="#5FD788"/>
<path d="M96.9055 56.8629H93.2915V52.9413H96.9055V49.0197H93.2915V43.1374C93.2915 42.6174 93.1011 42.1185 92.7623 41.7508C92.4235 41.3832 91.9637 41.1766 91.4845 41.1766H87.8705V35.2943C87.8681 32.6787 87.1776 30.1182 85.8804 27.9141C84.5832 25.71 82.7335 23.9522 80.5482 22.8492L80.7233 22.3415H80.7241C83.0804 15.5225 83.0054 7.99468 80.5135 1.23257C80.3046 0.666225 79.8649 0.237297 79.3236 0.0727259C78.7824 -0.0918407 78.2007 0.0263319 77.7514 0.392232L73.4146 3.92164C70.3072 6.45048 66.845 8.41911 63.1599 9.75244C59.4749 11.0865 55.6157 11.7657 51.7306 11.7649C47.0066 11.764 42.4366 13.59 38.8412 16.9144C35.2449 20.239 32.8587 24.8452 32.1092 29.9065C29.7399 30.6199 27.6128 32.0642 25.9865 34.0653C24.361 36.0664 23.3059 38.5366 22.9501 41.1766H19.2046C18.2067 41.1766 17.3976 42.0546 17.3976 43.1374V49.0197H13.7836V52.9413H17.3976V56.8628H13.7836C12.7857 56.8628 11.9766 57.7408 11.9766 58.8236V92.1569C11.979 94.2367 12.7413 96.2299 14.0958 97.7004C15.4511 99.1701 17.2879 99.9973 19.2046 100H91.4846C93.4013 99.9974 95.2382 99.1702 96.5933 97.7004C97.9478 96.2298 98.7101 94.2367 98.7126 92.1569V58.8236C98.7126 58.3037 98.5222 57.8047 98.1834 57.4371C97.8446 57.0694 97.3848 56.8628 96.9056 56.8628L96.9055 56.8629ZM35.4675 33.3335H58.9585V29.4119H35.8743C36.6939 25.5132 38.7083 22.0318 41.589 19.5388C44.4697 17.0449 48.0459 15.6865 51.7307 15.6865C56.0037 15.6873 60.2494 14.9398 64.3031 13.4727C68.3568 12.0065 72.1651 9.84089 75.5831 7.05904L77.9322 5.14729C79.298 10.3529 79.0906 15.8966 77.3393 20.9649L77.0787 21.7185H77.0795C76.464 21.6196 75.8437 21.5688 75.2217 21.5688H66.1867V25.4904H75.2217C77.6169 25.493 79.9135 26.5268 81.6076 28.365C83.3016 30.2032 84.2542 32.6953 84.2567 35.2943V41.1767H26.6144C27.0339 38.9638 28.1431 36.9759 29.7557 35.5464C31.3691 34.1178 33.3858 33.3362 35.4679 33.3335L35.4675 33.3335ZM21.0115 52.9413H37.2745V49.0197H21.0115V45.0982H89.6775V49.0197H84.2565V52.9413H89.6775V56.8629H21.0115V52.9413ZM95.0985 92.1569C95.0977 93.1968 94.7161 94.193 94.0385 94.9282C93.3609 95.6635 92.4429 96.0776 91.4846 96.0784H19.2045C18.2462 96.0775 17.3282 95.6635 16.6506 94.9282C15.973 94.1929 15.5914 93.1968 15.5906 92.1569V60.7844H95.0986L95.0985 92.1569Z" fill="#424B25"/>
<path d="M40.8906 49.0195H80.6446V52.9411H40.8906V49.0195Z" fill="#424B25"/>
<path d="M55.3475 88.2348C57.7435 88.2348 60.0416 87.2018 61.7366 85.3637C63.4307 83.5246 64.3825 81.0307 64.3825 78.4309C64.3825 75.831 63.4306 73.3373 61.7366 71.498C60.0418 69.6598 57.7435 68.627 55.3475 68.627C52.9515 68.627 50.6534 69.6599 48.9584 71.498C47.2643 73.3371 46.3125 75.831 46.3125 78.4309C46.3149 81.0298 47.2676 83.5219 48.9617 85.3601C50.6557 87.1983 52.9524 88.2321 55.3475 88.2348ZM55.3475 72.5485C56.785 72.5485 58.1646 73.1683 59.1808 74.2712C60.1971 75.3741 60.7684 76.8711 60.7684 78.4307C60.7684 79.9904 60.1973 81.4875 59.1808 82.5903C58.1644 83.693 56.7848 84.313 55.3475 84.313C53.9102 84.313 52.5304 83.6932 51.5142 82.5903C50.4979 81.4873 49.9266 79.9904 49.9266 78.4307C49.9282 76.8709 50.5002 75.3757 51.5166 74.2737C52.5322 73.1707 53.9101 72.5501 55.3476 72.5484L55.3475 72.5485Z" fill="#424B25"/>
</svg>
