<svg width="172" height="172" viewBox="0 0 172 172" fill="none" xmlns="http://www.w3.org/2000/svg">
<g clip-path="url(#clip0_386_28720)">
<path d="M110.171 61.7233C107.023 62.6913 103.855 63.1688 100.854 65.85C98.9055 67.6013 96.7628 68.4126 94.9198 70.643C94.4829 71.1557 94.1079 70.9467 93.7381 70.9237C88.9157 70.6063 84.0765 70.5578 79.2089 70.6932C74.8656 70.8105 70.5756 70.3408 66.1681 70.1336C68.1864 66.9862 70.5263 64.635 73.1804 63.4675C75.9574 62.2233 78.7903 61.978 81.5378 60.1246C83.356 59.9174 85.1605 59.1187 86.9533 58.235C87.7379 57.8284 88.573 57.6948 89.265 56.6075C89.3836 56.0581 89.2501 55.763 89.0116 55.5288C88.6881 55.3062 88.3162 55.3167 87.956 55.4124C85.7932 55.7332 83.6769 56.9342 81.53 57.8127C81.1477 57.9913 80.8968 58.4987 80.6143 58.9704C78.7133 60.2354 76.7565 60.5016 74.8543 60.9735C71.3944 61.804 68.4538 64.5902 65.7014 68.4173C64.6859 69.8219 63.7386 70.404 62.4739 70.6626C58.6107 71.468 54.7736 71.5832 50.923 72.1868C47.9073 72.6569 45.0417 72.0734 42.0953 71.9741C39.1153 71.8728 36.1542 71.469 32.855 72.1576C35.4319 68.1677 38.2308 65.7607 40.8962 63.0586C40.9991 62.4913 40.9328 62.2004 40.5505 62.379C38.0866 64.0139 35.814 66.3693 33.6685 69.1207C31.0284 72.4993 28.1767 73.0471 25.222 73.6222C20.0826 74.6011 14.9901 74.0138 9.8403 75.7006C7.22286 76.5498 4.62028 78.2436 2.03864 79.6012C1.47987 79.9038 0.885414 80.2379 0.416124 81.5415C1.24499 82.0487 2.03066 81.8952 2.89084 81.3583C8.11176 77.9887 13.3016 76.743 18.5882 76.6507C21.9148 76.6049 25.3631 75.6894 28.74 74.8369C34.2407 73.4756 39.5265 74.2099 44.9024 74.0387C49.4002 73.8803 52.7021 76.3975 55.6335 80.7982C56.761 83.0112 58.4427 83.369 60.1717 83.2406C61.6632 83.131 63.1464 83.156 64.6254 83.2481C65.3386 83.4444 66.0382 83.5893 66.7766 83.3822C67.285 83.3464 67.7461 83.257 67.7186 82.0743C67.2088 80.2372 66.0345 80.6702 65.0335 80.7597C63.2017 80.9155 61.4422 80.7215 59.794 79.8258C59.4147 79.684 59.0323 79.3228 58.6563 79.4006C55.5546 80.169 54.2177 76.1714 52.1249 74.0164C54.8927 73.7333 57.6667 73.3494 60.4093 72.9298C65.2967 72.2051 70.2586 71.637 74.9363 72.654C77.5823 73.2407 80.2926 74.6918 82.7184 76.6483C84.1324 77.7825 85.7481 78.3893 86.9962 80.0193C87.4827 80.6064 87.8337 81.4718 88.3758 81.978C89.7564 84.1899 91.7513 84.9385 93.3135 86.6724C94.2558 86.9842 95.1215 87.713 96.155 87.3725C96.4522 87.2054 96.6707 86.9491 96.7714 86.4155C96.6084 85.5111 96.101 85.2601 95.6294 84.9777C93.955 84.7721 92.9619 82.5675 91.4891 81.8346C91.217 81.5983 90.8746 81.6782 90.6225 81.3925C88.4299 79.4844 86.2815 77.4102 84.005 75.7668C82.5195 74.6956 81.0162 73.6402 78.9782 72.7709C81.7249 72.284 84.02 72.0053 86.2721 72.1456C91.5473 72.5081 96.92 72.1174 102.19 72.8338C103.528 73.0184 104.511 73.7714 105.235 75.4193C105.988 77.1366 106.95 78.4789 108.403 78.7212C107.503 77.1973 106.338 76.1292 105.622 74.3468C105.514 73.1084 106.662 73.9055 106.583 72.7364C103.576 71.7054 100.461 71.3426 97.0522 71.0796C101.594 66.6891 106.05 63.9635 110.77 63.4816C111.216 63.9142 111.734 63.7104 112.251 63.5401C113.067 63.1692 113.894 62.6302 114.725 62.5638C115.237 62.4608 115.725 62.2212 116.206 62.0825C116.705 61.928 117.21 61.6726 117.711 61.4845C117.883 61.4278 118.057 61.3374 118.232 61.247C119.012 60.3677 120.237 61.2876 120.696 59.0722C120.574 58.8622 120.432 58.7015 120.27 58.5902C118.859 58.2155 117.427 59.0035 115.999 59.4376C113.957 60.2552 111.997 59.7619 110.171 61.7233Z" fill="#67342F"/>
<path d="M115.924 60.1419C117.363 59.7929 118.775 59.0542 120.187 59.1421C120.632 58.495 120.971 57.6557 121.432 57.0264C121.74 56.6913 121.393 56.2985 121.585 55.9392C121.604 55.8898 121.685 55.9455 121.713 56.0484C121.964 56.6208 121.467 56.7417 121.395 57.0915C121.248 57.8247 121.347 58.4045 121.655 58.8625C122.515 59.1522 123.452 58.7382 124.293 59.0437C124.82 59.2453 124.995 60.2347 125.524 60.4027C125.675 60.4289 125.845 60.4058 126.001 60.3312C126.517 59.9078 127.064 59.5201 127.297 58.4885C127.243 57.9959 127.286 57.5768 127.624 57.311C127.749 57.2007 127.907 57.0924 128.032 56.9821C128.544 56.6259 129.057 56.776 129.556 56.6215C129.952 56.4944 130.332 56.3493 130.724 56.2894C130.979 56.2547 131.219 56.2021 131.463 56.0823C131.887 55.7713 132.522 55.5916 132.464 54.6263C132.414 53.8133 131.809 54.3155 131.443 54.2252C130.896 54.073 130.294 54.2549 129.815 53.8201C124.218 54.028 118.602 53.7119 112.989 58.2212C113.744 59.6517 115.201 58.7471 115.924 60.1419Z" fill="#E69B52"/>
<path d="M92.9449 60.9197C94.6098 61.0066 96.2727 61.1271 97.9299 59.4419C98.2413 56.34 99.9219 56.4447 101.087 55.3532C101.164 55.1893 101.242 55.0254 101.32 54.8615C101.147 53.8385 100.58 53.7356 99.997 53.615C100.581 53.4489 101.173 54.5149 101.671 53.2806C102.15 52.0957 101.467 51.6819 101.189 51.0066C101.083 50.8144 100.974 50.6558 100.866 50.4972C100.348 49.3345 99.491 49.551 98.6917 49.6531C98.2453 49.5072 97.8491 48.5545 97.3219 49.4327C96.7749 50.3604 97.2256 50.979 97.5913 51.6091C96.9588 50.9286 96.3179 50.3825 95.5805 50.3028C94.6415 50.2105 93.8979 50.7716 94.3342 52.7053C94.495 53.6433 95.5957 52.767 95.5035 54.246C95.4496 57.8195 95.4496 57.8195 93.2429 58.8461C92.9477 58.9796 92.7094 59.2853 92.5141 59.7118C92.386 60.1425 92.3766 60.5637 92.488 60.9418C92.6319 61.0689 92.7843 61.0615 92.9449 60.9197Z" fill="#E79A42"/>
<path d="M141.14 76.1897C143.515 77.3331 146.004 76.9146 148.538 75.7902C149.135 75.6756 147.793 74.4784 148.902 74.5475C149.473 74.5831 150.072 74.1818 150.541 73.418C151.027 72.6721 151.406 71.7341 151.178 70.7919C150.963 69.9012 150.328 70.0809 149.816 70.4371C149.217 70.8385 148.561 70.8144 147.928 71.5005C148.862 70.0402 149.423 68.6242 148.141 67.532C145.917 66.6679 143.706 65.6022 141.197 66.61C142.168 68.3577 143.954 67.0349 144.993 68.5C145.6 68.7909 145.507 69.7299 145.489 70.5724C145.661 71.5954 145.239 72.9526 145.746 73.7435C146.374 74.778 145.536 73.8654 145.573 74.087C145.132 74.127 144.663 74.3508 144.229 74.5431C143.238 75.5443 142.082 74.8817 141.14 76.1897Z" fill="#F3C48A"/>
<path d="M62.7347 90.5708C65.8841 92.0156 69.1286 91.1211 72.4087 89.1153C73.356 88.5332 74.358 88.157 75.2244 86.9793C76.4027 85.3993 76.6325 84.1482 75.4243 82.9594C73.8532 84.8861 72.0896 84.7593 70.4217 85.5327C70.2789 85.6588 70.1497 85.8364 70.0027 86.0297C69.4797 86.8407 69.002 87.7388 68.4023 88.427C68.1503 88.6812 67.9519 89.4281 67.6198 88.8C67.0233 89.1678 66.624 88.5355 66.1041 88.4862C65.9517 88.4936 65.7953 88.5682 65.6545 88.6607C65.1725 89.0862 64.6946 89.4444 64.1757 89.6483C63.827 89.8291 63.451 89.9068 63.0845 90.1033C62.9595 90.2137 62.8324 90.3576 62.7347 90.5708Z" fill="#F7D7AB"/>
<path d="M149.928 104.069C149.292 102.629 148.656 101.189 148.003 99.7643C146.207 99.062 144.276 100.005 142.419 100.024C141.709 100.047 140.888 99.9453 140.375 101.415C140.675 102.007 140.942 102.598 141.243 103.19C143.029 104.853 145.294 104.792 147.161 106.224C148.24 107.051 149.514 105.831 149.928 104.069Z" fill="#F0BB78"/>
<path d="M90.5398 81.4048C90.7468 81.6033 90.9716 81.7861 91.1943 82.0024C92.0515 82.3258 92.8741 82.9338 93.8258 82.8244C95.0841 82.6666 95.5874 83.5247 95.3567 85.6024C95.7612 85.8807 96.1992 86.1611 96.6037 86.4393C96.7551 87.2586 97.1795 87.4875 97.6396 87.6849C97.9358 87.8046 98.2321 87.9243 98.5409 87.8423C99.0524 87.4861 99.5944 87.4524 100.103 87.4166C101.194 86.4217 101.282 84.47 101.88 82.9889C100.027 81.3212 97.9744 80.6871 95.7099 81.2883C93.9442 81.7351 92.273 81.2091 90.5398 81.4048Z" fill="#DB9657"/>
<path d="M130.47 91.4514C130.35 90.6678 129.92 90.5397 129.533 90.2457C128.382 89.769 127.481 88.2451 126.114 88.531C125.937 88.655 125.774 88.8305 125.706 89.113C125.036 92.0238 125.036 92.0238 122.755 93.1471C122.005 93.2691 121.344 92.5192 120.546 93.1276C119.435 94.7118 119.552 95.8157 120.747 96.4132C121.811 96.935 122.759 98.2258 124.132 96.506C124.845 95.6225 125.355 96.9197 125.979 97.1948C126.669 97.2209 126.797 96.2503 127.08 95.4919C127.043 93.6505 128.011 93.559 128.639 93.2269C129.354 92.8497 130.052 92.7414 130.47 91.4514Z" fill="#EBAD69"/>
<path d="M93.0191 93.2179C97.6289 96.6771 102.443 97.6688 107.745 92.7352C107.6 92.355 107.373 92.2058 107.106 92.1555C106.938 92.145 106.752 92.1503 106.58 92.207C105.77 92.4771 104.966 92.6464 104.152 92.9837C102.904 93.5134 101.764 93.9484 100.704 92.2796C99.9366 91.0507 98.4389 91.801 97.2562 91.8285C96.2929 91.8529 95.293 92.1955 94.3015 92.4036C93.8561 92.5109 93.3971 92.5666 93.0191 93.2179Z" fill="#F5CD99"/>
<path d="M134.818 70.4297C132.376 70.3618 130.017 71.9358 127.717 73.6484C125.241 75.4849 122.888 76.958 120.438 75.6581C120.105 75.3167 120.015 75.6823 120.002 76.1707C121.169 76.6653 122.358 77.0768 123.481 77.7373C124.213 78.171 124.922 78.4345 125.743 77.7096L125.705 77.7747C125.677 77.4186 125.632 76.7915 125.667 76.76C128.935 74.416 132.159 71.4112 135.676 71.8328C136.986 73.2811 138.588 72.2168 140.077 72.1408C140.516 72.1345 140.912 72.0073 141.311 71.5597C141.484 71.2162 141.503 70.9137 141.37 70.6186C139.321 69.3774 137.096 69.6267 134.818 70.4297Z" fill="#6F3C37"/>
<path d="M120.554 59.1645C119.742 60.2949 118.713 59.7415 117.902 60.8383C117.76 62.5841 118.576 62.2131 118.888 62.3507C119.42 62.1983 119.105 62.921 119.196 62.5555C119.218 62.4725 119.166 62.4861 119.068 62.4462C118.653 62.336 118.275 62.4474 117.948 63.0851C117.719 64.0494 118.091 64.5787 118.358 65.169C118.682 65.9315 119.621 64.944 119.741 66.2675C120.079 66.2548 120.435 66.2264 120.773 66.2137C121.282 64.2714 122.016 66.0381 122.609 65.4508C123.108 64.2165 123.838 64.6838 124.47 64.2845C124.617 64.0912 124.699 63.8601 124.749 63.5933C124.784 63.3086 124.783 63.0555 124.748 62.8002C123.924 61.3991 123.103 59.9644 122.03 59.0371C121.674 59.0656 121.44 58.7641 121.225 58.4134C120.923 58.3945 120.577 58.2549 120.554 59.1645Z" fill="#DF9652"/>
<path d="M94.5119 52.5813C94.4149 50.8881 95.0062 50.3344 95.688 51.0349C96.4014 51.7711 97.2984 51.4558 98.1368 52.6216C97.9874 51.2288 97.3119 50.9674 97.401 49.8088C98.0259 49.2572 98.0619 50.8454 98.587 50.5407C99.6015 49.4229 99.0121 48.8631 98.5078 48.2918C94.6286 47.9994 90.8666 50.4308 87.1223 52.8463C87.4355 53.7769 88.029 53.7295 88.6004 53.7652C90.3922 52.6283 92.1106 52.6679 93.8093 53.2968C94.0687 53.1948 94.3166 53.0078 94.5119 52.5813Z" fill="#ECAA57"/>
<path d="M151.866 98.4874C152.492 99.2688 153.286 99.5207 154.083 99.7391C154.454 100.015 154.879 99.9574 155.264 99.9983C156.43 99.1599 155.334 98.0624 155.646 97.1201C154.939 95.7432 155.022 93.6056 154.332 92.2129C153.925 91.7151 153.487 91.4347 152.918 91.6186C151.51 92.83 150.017 93.2263 148.579 94.1152C148.667 94.3232 148.722 94.529 148.81 94.737C149.124 95.3808 149.532 95.8786 150.08 95.7441C151.489 95.3258 151.811 96.6618 151.866 98.4874Z" fill="#E6964A"/>
<path d="M69.919 45.5995C68.3234 45.4832 66.7258 45.9404 65.1357 47.0898C65.0454 47.4554 65.5822 47.2357 65.3018 47.6738C65.1905 47.8356 64.9615 47.7201 64.7892 47.7768C64.1023 47.9702 63.4049 48.3317 63.5995 49.8117C63.7636 50.9692 64.3592 51.4281 65.0797 50.6969C66.0343 49.7272 66.8483 49.3899 67.6415 50.4685C68.9219 50.2277 70.2392 50.7485 71.469 49.1548C71.7368 48.9184 71.9909 48.6305 72.2629 48.3269C72.5706 47.9918 72.9435 47.6945 72.9024 47.0001C72.8655 46.2386 72.5125 45.9467 72.0713 45.9867C71.3077 46.0572 70.586 45.9953 69.919 45.5995Z" fill="#F0B878"/>
<path d="M101.88 82.955C100.531 83.4783 100.946 86.0349 100.007 87.0225C99.7506 87.3439 99.7076 87.7631 99.7655 88.1885C99.8359 88.4122 99.942 88.6044 100.05 88.763C101.825 90.3414 101.985 90.1996 102.281 87.0798C102.235 86.7395 102.089 87.186 102.26 86.8761C102.358 86.6628 102.452 86.7699 102.4 87.0704C102.581 88.4989 103.557 88.8128 103.757 90.1919C105.403 90.5813 106.008 90.0791 106.472 88.0496C104.997 86.2705 103.704 84.0134 101.88 82.955Z" fill="#E7A968"/>
<path d="M148.107 67.5292C149.187 69.1487 148.034 70.3254 147.087 71.9873C148.208 71.6016 148.934 72.1361 149.696 71.2726C150.131 70.7935 150.691 70.2041 150.852 71.1421C150.962 71.807 150.64 72.9173 150.039 73.3523C149.65 73.6318 149.248 73.8598 148.819 73.9849C147.615 74.3485 148.559 75.1666 148.504 75.7874C150.638 75.1105 152.286 73.3067 153.038 69.6249C152.068 68.957 150.965 68.7871 150.1 67.7715C149.481 67.6823 148.811 67.6068 148.107 67.5292Z" fill="#F6D1A0"/>
<path d="M63.9126 58.8738C64.0313 58.8643 64.1499 58.8548 64.255 58.7939C66.6063 55.9878 69.212 53.9737 71.6884 51.5972C72.6177 49.9511 73.9546 48.8027 74.3386 46.4309C73.2409 45.9069 72.7885 48.0215 71.9599 48.5941C71.6784 48.779 71.419 48.8809 71.1417 48.9986C70.7722 50.0554 70.3028 50.8191 69.5518 51.2279C67.7211 52.1767 65.9694 53.7548 64.0713 54.1595C63.1649 54.3561 62.3142 55.0117 62.2778 56.9497C62.6781 57.8351 63.3631 58.2153 63.9126 58.8738Z" fill="#F5CD9C"/>
<path d="M98.4911 48.2748C98.633 48.9754 99.1016 49.5783 98.5702 50.5237C99.3485 50.2179 100.195 49.6295 100.587 51.1893C100.667 50.9918 100.756 50.913 100.871 50.9708C100.92 50.9907 100.93 51.1094 100.905 51.226C101.105 51.8121 101.577 52.6345 101.441 52.9129C100.945 54.1136 100.577 52.9771 100.166 52.7996C99.5265 52.5067 99.2314 53.1801 98.8735 54.3219C99.8356 54.0444 100.646 54.0275 101.304 54.8446C102.013 53.4884 102.704 52.1479 103.397 50.7739C103.892 48.7801 103.752 47.506 102.306 47.7027C101.043 47.9277 99.7673 48.1013 98.4911 48.2748Z" fill="#EBA44E"/>
<path d="M123.002 83.5275C121.505 83.4511 120.008 83.3747 118.512 83.2983C117.285 84.0317 116.154 82.679 114.9 83.8494C114.889 85.9239 115.998 85.9931 116.805 86.5832C117.531 87.1178 118.249 87.7867 119.125 87.8076C120.258 87.2202 121.345 86.2925 122.492 85.7566C122.904 85.1073 123.315 84.4581 123.002 83.5275Z" fill="#BC723E"/>
<path d="M120.496 93.3271C121.275 93.5612 122.071 93.7795 122.849 94.0136C123.237 92.9411 124.826 93.1582 124.151 90.9903C123.847 90.1784 123.468 89.4968 122.792 89.5221C122.451 89.5684 122.12 89.7333 121.81 89.8489C120.559 90.159 119.304 90.2496 118.036 90.5755C117.147 89.6765 116.588 87.8195 115.188 88.3565C115.135 89.7367 115.454 90.8533 115.844 91.9067C117.096 93.4695 118.89 92.299 120.243 93.3282C120.344 93.3345 120.429 93.3229 120.496 93.3271Z" fill="#D79559"/>
<path d="M124.999 65.8195C126.848 65.648 128.649 64.9166 130.241 62.6537C130.501 61.7251 131.161 61.142 131.231 60.0328C131.375 58.2534 130.783 58.014 129.888 58.2957C129.217 58.5069 128.682 59.2328 128.064 59.6836C127.729 59.9158 127.284 60.2761 127.269 60.7982C127.22 62.9379 126.266 63.0809 125.412 63.517C124.931 64.1956 124.683 64.9226 124.999 65.8195Z" fill="#EBAA65"/>
<path d="M56.0459 51.4332C54.8822 52.238 53.8005 53.3516 52.8481 54.8276C53.6812 55.8075 54.6431 54.4502 55.5328 54.5225C55.703 54.4993 55.8574 54.4583 56.0139 54.3837C56.1704 54.3091 56.329 54.2009 56.4718 54.0748C56.6893 54.1053 56.9915 52.5044 57.1861 53.9844C57.6011 54.6345 58.1253 54.6165 58.7019 54.2982C59.0999 54.1374 59.4337 52.5722 59.8919 53.883C60.1935 54.7285 60.7849 54.7148 61.371 54.5151C62.0032 54.1158 62.5451 53.5422 62.6384 52.3164C61.535 49.9868 60.1168 48.9198 58.0825 50.4296C57.4439 50.9298 56.7581 51.3763 56.0459 51.4332Z" fill="#ECB171"/>
<path d="M147.619 89.399C147.743 90.6553 147.798 91.9409 148.275 92.9492C149.521 94.6128 150.893 93.1798 152.229 92.3183C152.951 91.8402 152.679 90.7772 152.945 90.0346C153.334 88.9284 152.371 87.8729 153.217 86.7447C152.982 86.73 152.747 86.7153 152.512 86.7007C151.665 86.7491 151.152 88.2188 150.401 88.6275C149.482 89.5657 148.54 87.8873 147.619 89.399Z" fill="#C06F34"/>
<path d="M149.932 104.07C148.679 106.033 147.638 106.221 146.916 104.54C146.769 104.193 146.614 103.981 146.386 104.119C144.864 104.986 143.744 104.005 142.577 102.97C142.273 102.698 141.69 103.117 141.229 103.207C143.081 107.608 146.195 107.177 149.182 106.891C150.472 106.769 150.475 105.369 149.932 104.07Z" fill="#F6D099"/>
<path d="M164.687 93.1106C164.038 92.6989 163.388 92.2873 162.739 91.8756C161.592 94.858 160.222 97.3372 158.23 98.7146C157.736 99.055 156.983 98.9575 156.911 100.387C159.548 100.855 161.81 98.6677 164.016 96.0213C164.377 95.099 165.1 94.3342 164.687 93.1106Z" fill="#EEB26A"/>
<path d="M96.1703 86.8847C95.1587 86.6023 94.1807 86.322 93.1691 86.0396C92.207 86.3171 91.4405 87.7878 90.471 87.913C89.9742 88.0339 89.4499 87.5119 88.9585 88.3587C89.3505 89.3785 89.9115 90.1221 90.5303 90.7512C90.8812 91.0767 91.2804 91.1691 91.6995 91.2121C92.9095 90.7476 94.0605 89.6045 95.2915 89.3438C95.822 89.225 96.3082 88.7323 96.5549 87.7522C96.5863 87.248 96.3951 87.0674 96.1703 86.8847Z" fill="#C5824D"/>
<path d="M67.6604 50.2338C67.3249 48.3064 66.5833 48.2939 65.5489 49.4611C65.1141 49.9402 64.7267 51.0127 64.1678 50.2355C63.9807 49.9877 63.7653 49.3837 63.8335 49.1012C64.1359 48.0402 64.783 48.4855 65.2567 48.1944C65.5896 47.9958 65.9068 47.7794 66.4855 47.4274C65.8867 47.2888 65.4876 47.1965 65.122 47.1062C64.287 47.2398 63.4667 47.6779 62.6538 48.2684C61.612 49.2833 61.2267 50.3222 62.3025 51.469C62.5546 51.7547 62.707 52.2872 62.7366 52.8965C63.0602 53.659 63.6212 53.8627 64.1053 53.4036C65.2763 52.2111 66.6302 51.8737 67.6604 50.2338Z" fill="#EEB473"/>
<path d="M70.2087 86.1953C71.5701 86.55 72.9384 84.3576 74.3882 85.4603C74.9029 85.8635 74.8889 83.6524 75.4213 82.9601C75.1156 82.7217 74.8099 82.4833 74.5042 82.245C73.7647 82.1989 73.2229 83.3124 72.4981 83.5709C72.0169 82.6299 73.0755 81.886 72.859 81.0289C71.1844 79.7435 69.3829 79.142 67.3642 80.1297C67.65 80.9574 68.192 80.9237 68.6921 81.0223C69.7046 81.0179 70.251 81.9968 70.5486 83.4494C70.4405 84.3707 69.7453 85.2384 70.2087 86.1953Z" fill="#F6D1A0"/>
<path d="M126.004 97.1107C125.484 95.4417 124.931 94.5636 123.575 96.3013C122.311 97.8928 121.508 95.6157 120.407 95.4121C119.54 95.2568 120.661 94.0445 120.519 93.3439C119.959 93.1402 119.403 93.1225 118.952 94.1236C118.586 95.3999 117.839 96.8212 119.023 97.5867C120.477 98.6222 122.272 98.2447 123.7 99.4304C124.195 99.3431 124.68 99.677 125.145 98.9805C125.396 98.4731 125.663 97.9836 125.914 97.4762C125.922 97.3418 125.964 97.2094 126.004 97.1107Z" fill="#EFB776"/>
<path d="M145.61 68.0822C144.427 66.2032 142.688 67.0397 141.197 66.6093C140.595 66.7911 139.995 66.3994 139.379 67.0697C139.421 67.4772 139.611 67.6915 139.818 67.89C140.844 67.937 140.419 69.6146 140.736 70.478C141.78 70.5093 142.442 72.339 143.682 71.4039C144.509 70.5781 145.321 69.7345 145.61 68.0822Z" fill="#EAAC6A"/>
<path d="M65.0931 82.5517C62.9018 81.9765 60.5554 82.8088 58.3484 82.2157C57.3525 81.9512 56.5068 81.173 55.5509 80.8098C55.2948 82.2111 55.8748 82.6521 56.4273 82.9902C57.0608 83.384 57.4118 84.2495 57.8363 85.0183C58.6474 86.0812 59.6201 86.1755 60.5789 85.1386C61.7184 83.9105 62.8307 83.6592 63.9914 83.7147C64.2803 83.6821 64.5733 83.5822 64.8411 83.3458C65.0396 83.1389 65.1236 82.8741 65.0931 82.5517Z" fill="#BA7240"/>
<path d="M161.364 91.7558C160.421 89.8243 158.931 89.3603 157.562 88.6001C157.49 88.6631 157.403 88.7083 157.349 88.7556C156.915 89.2346 156.511 89.7494 156.538 90.679C156.662 91.9352 157.004 93.2219 157.783 93.1693C159.053 93.0965 158.743 94.5451 158.771 95.7279C160.056 95.9598 160.827 94.675 161.4 92.8041C161.508 92.4228 161.513 92.0688 161.364 91.7558Z" fill="#E7974A"/>
<path d="M140.398 101.399C141.009 100.796 141.698 100.569 142.275 100.791C143.891 101.397 145.789 99.0861 147.336 100.802C147.667 101.177 147.892 100.28 148.044 99.7327C147.934 98.7811 147.662 98.0049 147.225 97.4378C146.216 97.1218 145.203 97.1262 144.11 97.6148C143.792 97.8312 143.532 98.2199 143.217 98.4028C142.652 98.8062 142.074 98.8715 141.514 98.9209C140.89 99.1857 140.176 99.2762 140.163 100.844C140.235 101.035 140.308 101.225 140.398 101.399Z" fill="#E6A765"/>
<path d="M161.362 91.7566C161.321 92.1421 161.28 92.5276 161.239 92.9131C160.863 95.9772 159.405 95.5489 158.211 96.0312C157.943 96.2676 157.918 96.671 157.895 97.0407C157.506 98.9399 156.125 98.0946 155.605 99.6651C155.115 99.6851 154.608 99.6873 154.118 99.7073C154.922 100.618 155.999 100.111 156.928 100.372C157.529 99.9368 158.126 99.2822 158.728 99.1004C159.97 98.6716 160.614 96.9909 161.394 95.5716C161.47 95.4414 161.527 95.0737 161.527 95.0737C163.803 95.6374 162.173 92.8194 162.736 91.9097C162.268 91.8467 161.815 91.8017 161.362 91.7566Z" fill="#ECA95E"/>
<path d="M50.5905 59.8994C51.4751 60.8656 52.5633 60.7309 53.6473 60.6635C54.5653 60.552 55.4246 60.8417 56.3668 60.6136C56.9844 60.4496 57.5821 60.335 57.898 59.3255C58.3201 57.9683 57.4797 57.916 57.1256 57.3709C56.1328 56.2461 55.0518 55.4532 53.6727 56.194C53.4807 57.38 53.4807 57.38 54.1679 58.2664C52.7627 59.6973 52.0334 57.8634 51.0406 57.2785C50.6415 57.1862 50.2203 57.1768 50.0019 57.973C49.6975 59.0676 50.2879 59.3406 50.5905 59.8994Z" fill="#BD8258"/>
<path d="M141.142 76.1892C142.255 76.1911 143.387 76.1773 144.484 75.0815C144.683 74.8745 144.987 74.3198 144.938 74.2999C144.02 73.8715 144.205 72.2465 143.813 71.2266C142.996 71.3444 142.232 70.875 141.376 71.3447L141.42 71.4655C141.128 71.8185 140.897 72.2765 140.729 72.806C140.22 73.9216 139.645 75.033 140.528 76.0328C140.745 76.0632 140.927 76.1252 141.142 76.1892Z" fill="#EDB26F"/>
<path d="M88.9729 88.3759C89.4875 88.2392 89.9162 88.9408 90.4917 88.3693C91.0839 86.9889 90.1604 85.8347 90.636 84.4302C90.7179 84.1991 90.3533 83.8221 90.1432 83.944C88.4607 84.9527 88.4887 83.1492 88.5031 81.2941C88.0324 80.7249 87.5659 80.0885 86.9293 80.015C86.9751 83.3417 87.2509 86.497 88.9729 88.3759Z" fill="#B5794F"/>
<path d="M153.219 86.7436C153.185 87.5682 152.509 87.8467 152.69 89.2752C152.982 91.3686 150.856 93.5307 149.244 93.1434C148.912 93.0552 148.578 93.0007 148.261 92.9303C148.373 93.3085 148.484 93.6866 148.596 94.0647C150.152 94.5329 151.607 93.6619 152.98 91.9421C154.239 91.4975 154.508 89.3547 155.322 88.1907C155.528 87.0562 154.766 87.3799 154.602 86.7623C154.147 86.7508 153.692 86.7393 153.219 86.7436Z" fill="#D27C38"/>
<path d="M115.919 60.1405C116.08 58.9189 115.829 58.3464 115.085 58.3676C114.391 58.4087 113.705 58.3153 113.017 58.2556C111.968 59.1181 110.671 59.3411 110.171 61.6888C112.091 61.2011 113.997 60.6619 115.919 60.1405Z" fill="#B26A35"/>
<path d="M71.6902 51.5988C68.9384 52.9795 66.3211 54.9085 64.2568 58.7954C67.0222 57.4661 69.5964 55.4163 71.6902 51.5988Z" fill="#F7D9B1"/>
<path d="M150.518 88.9045C151.573 89.3077 151.817 87.2814 152.545 86.7025C151.003 85.4591 147.988 86.1823 147.116 88.0007C146.945 88.3106 146.946 88.5638 147.117 88.7938C147.227 88.9188 147.32 89.0595 147.43 89.1845C148.478 88.6087 149.433 89.7986 150.518 88.9045Z" fill="#B56834"/>
<path d="M121.898 90.4107C122.201 90.4295 122.505 90.4148 122.723 89.9053C122.868 89.2057 122.58 88.9516 122.328 88.6659C122.121 88.4674 121.927 88.3204 121.7 88.1713C120.98 87.8227 120.36 86.9405 119.457 87.3566C117.871 86.5323 116.306 85.6587 114.931 84.1726C114.799 83.8438 114.595 83.6117 114.388 83.4133C114.163 83.2305 113.974 83.0163 113.674 83.217C113.463 83.0857 113.234 82.9702 113.023 82.8389L113.043 82.7896C112.874 85.2255 114.683 84.3596 114.986 85.9982C116.095 87.687 117.608 88.3212 118.999 89.2852C119.905 89.9153 120.924 90.0632 121.898 90.4107Z" fill="#753E33"/>
<path d="M123.874 91.1415C124.54 92.9039 122.844 92.7813 122.851 94.0135C124.092 93.3315 125.224 91.9511 126.654 91.7365C125.506 91.4794 125.957 89.9384 125.871 88.8701C126.268 87.9163 126.529 86.9877 126.166 86.0371C125.814 85.4584 125.5 84.8146 124.95 84.696C124.511 85.2423 124.432 85.9797 124.401 86.737C124.697 88.2233 123.932 89.6604 123.874 91.1415Z" fill="#E2A15F"/>
<path d="M106.49 88.0666C105.732 89.4028 104.891 90.1771 103.898 89.5923C103.194 89.5147 103.245 90.3277 103.216 91.0514C104.227 92.1604 105.35 92.8209 106.691 92.6852C106.81 92.6757 106.911 92.682 107.045 92.6904C108.002 92.227 108.334 91.2353 108.068 89.8184C107.532 89.2113 106.994 88.6379 106.49 88.0666Z" fill="#F0B878"/>
<path d="M128.062 60.1886C128.888 60.7294 129.295 58.8144 130.173 58.8016C131.051 58.7889 130.892 59.437 130.838 60.3109C131.093 60.8161 131.414 60.8192 131.781 60.336C131.843 60.1543 131.921 59.9904 131.983 59.8086C131.782 58.4295 132.479 56.4483 131.382 55.6376C131.147 55.6229 130.912 55.6083 130.692 55.6115C129.804 57.9519 128.759 56.3009 127.793 56.6456C127.388 57.194 126.651 56.8275 126.488 57.8297C126.379 58.4977 126.949 58.2802 127.263 58.3841C127.438 59.0868 127.705 59.6771 128.062 60.1886Z" fill="#E8A15A"/>
<path d="M88.8965 53.0238C88.2936 52.9525 87.6886 52.9148 87.0856 52.8435C85.0459 53.6274 83.1744 55.5017 81.2493 56.8833C80.5078 57.4108 80.7086 58.25 80.5774 59.0011C80.8232 58.8477 81.0689 58.6943 81.3147 58.5409C82.9803 56.7213 84.7554 56.3932 86.5368 55.9643C87.1132 54.5661 87.922 54.0429 88.8168 53.7612C88.9502 53.5164 88.9827 53.2654 88.8965 53.0238Z" fill="#C88D56"/>
<path d="M119.253 88.6773C117.778 87.978 116.543 86.3995 114.98 86.0322C114.979 86.8588 114.945 87.6834 115.223 88.3588C116.137 89.3943 117.053 90.3962 117.968 91.4317C118.27 90.3708 119.248 90.1111 119.253 88.6773Z" fill="#C9814B"/>
<path d="M69.1067 80.3057C68.5196 80.2522 67.9502 80.183 67.363 80.1295C64.7875 80.3065 62.2224 80.3153 59.7224 79.8221C60.5799 81.7652 62.1426 80.5128 63.3097 81.0073C64.7058 81.6174 66.5018 80.4133 67.5683 82.5212C68.5368 82.6828 69.0829 82.042 69.1067 80.3057Z" fill="#E8B884"/>
<path d="M63.9164 58.8741C64.0378 56.9246 63.1671 57.0896 62.3782 57.0236C62.3036 56.8671 62.2227 56.8114 62.1356 56.8566C62.0326 56.884 61.9791 56.9312 61.977 56.9649C61.4269 58.7527 60.5236 59.1689 59.5205 59.2919C59.071 59.4664 58.6277 59.54 58.1824 59.6472C56.7677 60.9594 55.3295 59.9419 53.8906 60.8308C56.2259 62.073 58.7215 61.0137 61.1982 60.2569C62.1088 59.9931 62.9931 59.3396 63.9164 58.8741Z" fill="#E6C19A"/>
<path d="M62.8865 52.3481C62.9073 50.9322 61.2822 50.2067 62.6536 48.2338C60.4206 48.8707 58.1739 49.4562 56.0272 51.4146C56.3645 51.6886 56.6555 52.1623 57.1281 51.6181C59.3282 49.0726 60.9083 50.7908 62.5347 52.3093C62.5914 52.4816 62.6544 52.553 62.7595 52.4921C62.8446 52.4805 62.8824 52.4154 62.8865 52.3481Z" fill="#F1BB7D"/>
<path d="M118.488 64.9916C118.645 64.0903 118.138 63.8393 117.991 63.206C117.854 62.4381 117.54 61.7943 117.562 60.8847C117.095 61.0749 116.594 61.263 116.127 61.4532C115.909 63.8691 115.059 64.7779 113.727 64.4924C113.463 64.6616 113.277 64.9537 113.166 65.3686C114.187 66.3096 115.441 65.9658 116.595 66.1221C117.26 66.0117 117.971 66.2416 118.488 64.9916Z" fill="#D18D52"/>
<path d="M87.0075 57.6137C85.1737 58.343 83.3303 58.9537 81.5186 60.1399C82.4398 60.2479 83.3274 60.3538 84.2487 60.4619C85.0061 61.0321 85.8894 60.6653 86.7235 60.8185C87.1331 60.7428 87.4429 60.3741 87.635 59.7281C87.8228 58.6093 87.5045 58.0327 87.0075 57.6137Z" fill="#AF7144"/>
<path d="M87.035 60.4831C86.1075 60.4759 85.1622 60.4845 84.2347 60.4773C87.0594 61.4463 89.9627 61.4248 92.9468 60.919C92.7987 60.8591 92.6505 60.7993 92.5203 60.7237C92.1892 59.8088 92.2793 58.3635 91.4137 58.1746C89.9612 59.012 88.4665 59.4419 87.035 60.4831Z" fill="#DD9D57"/>
<path d="M91.9287 90.753C91.456 90.7573 91.0012 90.7458 90.5285 90.7501C91.2146 91.9233 92.1003 92.6027 93.0079 93.1992C93.4806 93.1949 93.9512 93.2242 94.4239 93.2199C94.8135 92.6537 95.3555 92.62 95.702 91.9329C95.5608 89.8658 94.8727 89.2661 93.6008 89.9123C93.042 90.215 92.5032 90.4682 91.9287 90.753Z" fill="#EEB97B"/>
<path d="M71.253 49.2249C72.2782 49.5587 72.8945 48.0618 73.5782 47.1089C73.8186 46.7696 74.0392 46.4797 74.3301 46.4134C74.3678 45.8084 74.374 45.1677 73.9329 45.2077C72.5936 45.3098 71.3025 44.6388 69.9109 45.5813C70.3042 47.9341 71.7619 46.2028 72.8775 46.711C72.2022 47.5294 71.7633 48.0757 71.3064 48.6377C71.1258 48.8289 71.1132 49.0306 71.253 49.2249Z" fill="#F3C58C"/>
<path d="M140.143 100.862C140.517 99.7378 141.069 99.536 141.704 99.643C142.344 99.1093 143.007 99.0325 143.664 98.5166C143.747 97.9988 143.597 97.6858 143.395 97.4201C143.014 97.0252 142.61 96.7469 142.145 96.6167C141.066 96.6169 140.03 95.9113 138.924 97.1415C139.123 98.5542 139.226 100.147 140.143 100.862Z" fill="#BE7B48"/>
<path d="M130.466 91.4503C129.577 92.9977 128.354 92.0442 127.337 93.4824C126.782 94.2577 127.02 94.7787 126.881 95.3774C127.492 96.1409 128.224 96.0347 128.997 95.543C129.648 94.3013 131.439 93.9911 130.466 91.4503Z" fill="#EAA55D"/>
<path d="M131.369 55.6535C132.149 56.6807 130.837 59.0454 131.97 59.8246C132.225 59.25 132.545 58.7131 132.751 58.1186C133.874 54.713 133.665 54.0082 131.563 53.8941C130.992 53.8585 130.416 53.8901 129.825 53.9039C130.474 54.8554 131.345 54.6903 132.227 54.6103C132.062 55.3593 131.657 55.3678 131.369 55.6535Z" fill="#EDAE6A"/>
<path d="M118.995 94.4313C119.491 94.0572 120.002 93.701 120.498 93.327C119.33 90.9596 117.376 92.5251 115.846 91.9067C116.051 93.2186 116.532 94.1597 117.085 95.0377C117.742 95.3149 118.365 95.3368 118.995 94.4313Z" fill="#EBAD69"/>
<path d="M63.1271 90.5446C63.4969 90.5677 63.8761 90.7094 64.2205 90.056C64.6101 89.4897 65.0743 89.08 65.2474 88.1966C65.2642 87.9277 65.2116 87.6882 65.1213 87.5139C64.1589 86.7115 63.2575 85.4743 61.97 87.1825C61.426 87.7897 60.5815 87.8046 60.4715 89.2993C60.6354 89.9169 61.043 89.8749 61.3907 89.9809C61.8992 90.485 62.7152 89.5741 63.1271 90.5446Z" fill="#F2C48C"/>
<path d="M64.3222 83.0101C62.9524 82.7897 61.651 82.8267 60.3414 84.6179C59.5664 85.6832 58.6692 84.9186 57.8205 85.0007C57.8669 85.881 58.241 86.3767 58.6171 86.8388C59.4555 88.0046 60.1725 85.4341 60.9971 86.0085C61.6756 85.4097 62.3752 85.5545 63.0663 85.2939C63.791 85.0353 64.5063 84.6581 64.3222 83.0101Z" fill="#CD894F"/>
<path d="M143.325 97.9555C143.395 98.1792 143.466 98.4029 143.552 98.6445C143.389 98.82 143.379 98.988 143.523 99.1151C143.84 98.8987 143.952 98.4501 144.015 97.9816C144.886 97.2767 145.975 96.8552 145.723 94.6631C145.182 93.8701 144.703 92.8955 143.869 92.7423C143.449 94.0658 142.802 95.2403 142.807 96.7928C142.856 97.3527 143.091 97.6541 143.325 97.9555Z" fill="#CC854A"/>
<path d="M106.475 72.7631C106.536 73.948 104.763 72.0828 105.514 74.3736C107.088 73.2063 108.544 74.2081 110.04 74.0314C111.025 73.924 111.98 74.0342 112.957 74.0613C113.088 73.8501 113.101 73.6484 113.031 73.4247C112.745 73.137 112.305 73.4301 112.025 73.0415C110.177 72.9263 108.326 72.8447 106.475 72.7631Z" fill="#7A4C48"/>
<path d="M140.37 71.4675C138.811 71.5728 137.25 71.7117 135.691 71.8171C136.026 72.9514 136.609 73.612 137.265 74.176C137.529 74.5467 137.891 74.4175 138.21 74.4542C139.212 74.0779 139.992 73.1986 140.37 71.4675Z" fill="#B5794F"/>
<path d="M123.678 99.413C123.283 97.0938 122.016 97.926 120.96 97.8096C120.324 97.7361 119.686 97.4096 119.014 97.3677C118.939 97.2112 118.858 97.1555 118.787 97.2186C118.7 97.2638 118.662 97.3289 118.658 97.3961C120.112 98.9715 121.606 100.448 123.678 99.413Z" fill="#F4C78E"/>
<path d="M137.663 88.9797C138.013 90.1319 138.397 91.2863 138.747 92.4385C138.712 93.803 139.192 94.4909 139.857 94.9204C140.39 95.3079 140.787 95.9738 141.242 96.5251C141.564 96.7814 141.881 97.1048 142.297 96.9283C142.426 96.7508 142.508 96.5197 142.542 96.235C142.492 95.422 142.167 94.9462 141.842 94.4704C141.514 94.0619 141.243 93.5388 140.954 93.0316C140.863 92.8572 140.737 92.7144 140.611 92.5715C139.921 92.0055 139.611 90.7545 138.938 90.1727C138.656 89.5646 138.357 88.9386 138.075 88.3305C137.794 88.2287 137.584 88.3505 137.663 88.9797Z" fill="#6F3930"/>
<path d="M151.865 98.4876C152.53 95.6776 152.236 94.9844 150.493 95.0614C149.935 95.0773 149.394 94.8242 148.845 94.7056C148.834 94.8737 148.842 95.026 148.849 95.1783C149.211 95.8757 149.556 96.5552 150.049 97.0415C150.643 97.534 151.254 98.0108 151.865 98.4876Z" fill="#EAA45C"/>
<path d="M124.994 65.8199C125.044 65.0132 125.292 64.2862 125.587 63.6129C125.542 63.5257 125.499 63.4049 125.454 63.3177C125.148 63.0793 124.859 63.112 124.545 63.5479L124.511 63.8326L124.476 64.1173C123.906 64.8747 123.17 64.2215 122.621 65.1827C121.708 65.4802 121.993 64.435 122.132 63.5494C121.263 63.9677 120.884 64.9057 120.753 66.1967C122.172 66.437 123.558 66.3884 124.994 65.8199Z" fill="#E6A25F"/>
<path d="M140.195 94.3007C139.459 94.1874 139.072 93.3534 138.741 92.4386C138.451 94.1245 138.558 95.6497 138.889 97.1044C140.016 97.1578 141.177 97.2133 142.304 97.2666C142.433 97.0891 142.444 96.921 142.371 96.7309C142.048 96.5083 141.724 96.2857 141.401 96.063C141.324 95.9402 141.247 95.8173 141.131 95.7931C140.247 95.62 140.049 95.287 140.195 94.3007Z" fill="#A2582E"/>
<path d="M101.099 55.3374C99.6831 54.2368 98.6302 57.8661 97.0333 56.4169C97.2805 58.1363 98.6764 57.6665 97.9425 59.4261C99.2837 58.7505 100.213 57.1043 101.099 55.3374Z" fill="#EBA44E"/>
<path d="M53.8929 60.8313C55.4264 60.5894 56.9338 61.0377 58.5146 60.3094C59.0996 59.8566 59.4324 59.1181 59.2179 58.2274C58.9625 57.1823 58.286 57.2076 57.617 57.3853C57.409 57.4736 57.2105 57.6805 57.0593 57.9411C57.2758 58.2582 57.4901 58.609 57.7065 58.9262C57.3947 59.3286 57.1616 59.8202 56.6689 59.8739C55.6858 59.9476 54.6595 59.9005 53.6523 60.6307C53.7112 60.7694 53.7921 60.825 53.8929 60.8313Z" fill="#C48E65"/>
<path d="M137.663 88.9797C137.812 88.7528 137.961 88.5258 138.093 88.3147C137.91 86.3799 136.62 85.1354 137.333 82.6322C137.357 82.5156 136.861 81.8098 136.416 81.917C136.101 82.0998 135.804 82.2669 135.964 82.9517C136.425 85.022 136.684 87.3664 137.663 88.9797Z" fill="#774845"/>
<path d="M138.282 67.6586C137.298 68.019 136.382 68.6368 135.612 69.888C136.527 70.6368 137.601 70.1975 138.621 70.3454C139.251 69.9798 139.803 69.2381 139.7 68.1856C139.592 66.9472 138.848 67.5082 138.282 67.6586Z" fill="#AF7249"/>
<path d="M126.182 86.0217C126.207 86.9849 125.592 87.9083 125.888 88.8546C127.196 88.9699 128.16 90.5653 129.548 90.23C128.419 88.8437 127.293 87.4237 126.182 86.0217Z" fill="#F2C187"/>
<path d="M141.54 94.8921C141.833 95.3321 142.128 95.7386 142.421 96.1787C142.589 96.4759 142.62 97.0515 143.024 96.7899C142.913 95.3319 144.455 94.4157 143.847 92.7919C143.524 92.5693 143.198 92.3803 142.874 92.1576C142.364 92.2271 142.073 92.8332 141.78 93.4729C141.637 93.599 141.542 93.7787 141.462 93.9761C141.392 94.2923 141.404 94.6306 141.54 94.8921Z" fill="#A35A2E"/>
<path d="M50.5924 59.8999C50.856 59.1908 49.321 57.5598 51.1876 57.6593C51.2296 57.5269 51.2716 57.3946 51.3314 57.2464C51.281 56.9734 51.1927 56.7654 51.0488 56.6383C50.492 56.3674 49.8786 56.4642 49.2735 56.4265C48.6003 56.6713 47.8807 56.5759 47.382 57.8102C48.5396 58.186 49.2532 60.002 50.5924 59.8999Z" fill="#C48A5D"/>
<path d="M125.739 77.7094C127.08 80.5599 129.331 79.9072 131.139 80.9478C131.225 80.6495 131.296 80.3333 131.382 80.0349C129.505 79.2769 127.596 78.5168 125.719 77.7587L125.739 77.7094Z" fill="#7D514E"/>
<path d="M138.788 70.0705C137.728 70.0213 136.653 69.9543 135.593 69.9051C135.329 70.0743 135.066 70.2435 134.818 70.4305C136.957 71.0194 139.348 70.021 141.39 71.3631C142.316 71.4039 143.257 71.4625 144.164 71.5191C144.188 71.4025 144.23 71.2701 144.255 71.1535C144.202 70.914 144.072 70.8384 143.933 70.8973C142.801 70.658 141.686 70.4029 140.554 70.1637C140.45 69.9378 140.308 69.7772 140.146 69.6658C139.672 69.417 139.234 69.6765 138.788 70.0705Z" fill="#87503D"/>
<path d="M145.707 94.6778C145.429 96.1621 144.588 96.9364 143.999 97.9963C145.061 98.0119 146.108 98.2627 147.205 97.4537C146.819 96.333 146.393 95.3111 145.707 94.6778Z" fill="#E4A25F"/>
<path d="M72.8757 81.0452C71.9116 81.8962 71.6187 83.0759 71.9394 84.6987C72.8784 84.2511 73.7511 83.5125 74.503 82.277L74.4851 82.2928C74.0334 81.961 73.5596 81.7121 73.2055 81.167C73.1089 81.0935 72.9923 81.0694 72.8757 81.0452Z" fill="#F4C892"/>
<path d="M113.175 65.4196C113.34 65.2105 113.505 65.0015 113.652 64.8082C113.944 64.4552 114.763 64.3038 114.429 63.7093C113.896 62.7819 114.874 62.5223 114.657 61.9519C113.785 61.8639 112.94 62.4186 112.096 62.9734C111.608 64.5796 112.353 64.8116 112.879 65.2999C112.974 65.407 113.072 65.4469 113.175 65.4196Z" fill="#AC6637"/>
<path d="M102.333 47.7376C103.363 48.0042 103.393 49.4065 103.424 50.8087C104.128 49.8065 104.705 48.6615 105.195 47.0217C104.161 47.1091 103.269 47.0704 102.333 47.7376Z" fill="#F2B970"/>
<path d="M138.324 74.1913C137.97 74.1862 137.616 74.181 137.262 74.1758C138.246 75.1819 139.293 75.9726 140.539 76.0165C140.126 74.7929 140.534 73.9241 141.207 73.1394C140.162 71.7751 139.283 74.2342 138.324 74.1913Z" fill="#DCAC7D"/>
<path d="M60.8699 85.7647C60.0179 85.0873 59.4332 87.1599 58.6254 86.8565C58.6707 87.4836 58.9029 87.8186 59.2443 88.0255C59.8946 88.6902 60.5806 88.7836 61.3356 87.7677C61.6737 86.6752 61.6725 85.8822 60.8699 85.7647Z" fill="#DA9C61"/>
<path d="M129 95.544C128.301 95.3991 127.65 95.0211 126.885 95.3784C126.596 95.9509 126.29 96.5392 125.985 97.0939C125.871 98.1159 126.213 98.036 126.653 97.7429C127.537 97.3761 128.295 96.5798 129 95.544Z" fill="#EFB776"/>
<path d="M118.489 64.9915C117.903 65.7311 117.163 65.1451 116.612 66.1399C117.58 66.8414 118.706 66.1017 119.744 66.2339C119.894 65.7202 120.49 65.6392 120.399 64.925C120.316 64.363 119.965 64.5774 119.69 64.6615C119.292 64.8222 118.882 64.898 118.489 64.9915Z" fill="#E6A25F"/>
<path d="M118.632 97.3607C118.75 97.3512 118.885 97.3596 119.003 97.3501C119.023 96.7608 117.897 96.4207 119.083 95.5329C119.791 95.0034 119.428 94.5927 118.982 94.4468C118.347 94.3398 117.716 94.4523 117.105 95.0553C117.499 96.0416 117.875 97.0436 118.632 97.3607Z" fill="#F1BE7F"/>
<path d="M150.155 67.7583C150.766 69.6017 151.78 70.1036 153.093 69.6117C152.461 67.8514 151.276 67.9125 150.155 67.7583Z" fill="#FBE6C8"/>
<path d="M122.997 83.5279C122.799 84.2748 122.6 85.0216 122.402 85.7685C122.445 85.8893 122.472 85.9922 122.498 86.1288C122.847 86.7411 123.305 86.9721 123.864 86.6695C125.878 84.1292 123.749 84.4521 123.349 83.5667C123.232 83.5425 123.114 83.552 122.997 83.5279Z" fill="#C67B42"/>
<path d="M49.1255 56.8742C49.8293 56.9518 50.5173 57.0116 51.2211 57.0892C51.4218 57.3885 51.573 57.128 51.7263 56.8338C51.7746 56.6006 51.7714 56.3811 51.7168 56.1752C50.6841 55.6891 49.6305 55.5391 48.4847 56.3282C48.6077 56.7914 48.9763 56.5612 49.1255 56.8742Z" fill="#8D5947"/>
<path d="M138.953 90.1566C139.326 91.479 139.606 92.9474 140.691 93.1331C141.402 91.7433 140.527 91.4357 140.304 90.6795C139.958 89.9999 139.422 90.2196 138.953 90.1566Z" fill="#9F562E"/>
<path d="M138.789 70.0697C139.244 70.0811 139.697 70.1262 140.152 70.1377C140.763 68.9947 140.309 68.1566 140.13 67.2344C139.881 67.1683 139.63 67.1357 139.381 67.0696C139.005 67.1474 138.604 67.0887 138.281 67.6591C139.641 67.5076 139.598 68.4666 138.789 70.0697Z" fill="#C68A59"/>
<path d="M123.355 83.5669C123.131 84.7172 125.413 84.3869 123.733 86.4418C123.594 87.5805 124.024 87.4554 124.487 87.3324C124.56 87.2358 124.634 87.1391 124.723 87.0603C124.823 86.2736 124.907 85.4689 124.989 84.6979C124.566 83.8955 124.056 83.425 123.355 83.5669Z" fill="#CE8A50"/>
<path d="M108.049 89.8003C107.832 90.8497 107.678 91.9705 107.027 92.6723C107.262 92.687 107.513 92.7195 107.748 92.7341C108.703 91.7644 109.709 90.7811 108.049 89.8003Z" fill="#F3C790"/>
<path d="M154.624 86.748C154.355 87.8111 155.09 87.3845 155.209 87.9149C155.64 89.6627 156.511 89.4976 157.488 88.6981L157.58 88.5857C156.693 87.6531 155.72 87.0188 154.624 86.748Z" fill="#E7974A"/>
<path d="M120.031 76.1726C120.176 76.0129 120.323 75.8196 120.468 75.6599C119.78 74.5204 118.912 74.3651 117.621 74.7739C118.393 75.9355 119.361 75.5572 120.031 76.1726Z" fill="#784B47"/>
<path d="M114.275 83.8953C114.488 83.993 114.701 84.0906 114.93 84.2061C116.123 82.9307 117.318 84.608 118.511 83.3326C117.131 83.2803 115.735 83.2102 114.354 83.158C114.138 83.3807 114.106 83.6317 114.275 83.8953Z" fill="#CD9161"/>
<path d="M134.425 81.5739C133.69 80.6339 132.712 80.8936 131.819 80.6017C132.271 82.0134 133.242 81.6014 133.956 82.0509C134.131 81.9605 134.334 81.9395 134.425 81.5739Z" fill="#7D514E"/>
<path d="M112.897 65.2847C112.551 64.6051 112.19 63.9077 112.114 62.9582C111.613 63.1463 111.146 63.3365 110.645 63.5246C111.22 64.5728 111.958 65.1924 112.897 65.2847Z" fill="#C3824F"/>
<path d="M55.906 53.7179C54.8765 53.4513 53.8873 54.7057 52.8663 54.8445C52.7371 55.0221 52.5901 55.2154 52.461 55.3929C52.5955 55.9412 52.8855 56.1617 53.2352 56.2342C54.212 55.7214 55.3507 55.8598 55.906 53.7179Z" fill="#8B5540"/>
<path d="M150.519 88.9046C149.482 89.0256 148.498 88.3062 147.431 89.1845C147.49 89.3232 147.553 89.3946 147.654 89.4009C148.328 89.4092 149.038 89.3859 149.652 89.8291C150.07 90.1588 150.395 89.8079 150.519 88.9046Z" fill="#7B402E"/>
<path d="M140.3 90.681C140.346 91.5613 140.869 92.1168 140.687 93.1347C140.991 93.4067 141.168 94.0758 141.678 93.7532C142 93.1828 142.069 92.6135 141.87 92.0274C141.421 91.3751 140.932 90.8217 140.3 90.681Z" fill="#8A3D19"/>
<path d="M49.1267 56.873C48.9019 56.6903 48.7107 56.5097 48.5037 56.3112C47.5679 56.4385 46.7602 57.2149 45.919 57.9892C45.9537 58.2444 46.0441 58.4188 46.208 58.4965C46.5945 58.2506 46.9789 58.0383 47.3654 57.7925C47.9094 57.1852 48.5291 56.9877 49.1267 56.873Z" fill="#7A483E"/>
<path d="M113.02 73.5932C112.994 73.7434 112.968 73.8936 112.957 74.0617C113.845 74.1676 114.732 74.2735 115.604 74.3616C116.006 74.4204 116.448 75.1734 116.783 73.8614C116.366 73.7848 115.933 73.6904 115.516 73.6138C114.692 73.2925 113.896 73.0741 113.02 73.5932Z" fill="#673430"/>
<path d="M111.075 81.6383C111.594 82.5142 111.945 83.9196 113.06 82.8081L113.041 82.8575C112.502 82.0309 111.965 81.1707 111.124 81.1183C110.977 81.3116 110.967 81.4797 111.075 81.6383Z" fill="#815653"/>
<path d="M134.429 81.5737C134.284 81.7333 134.122 81.9088 133.961 82.0506C134.601 82.3436 135.274 82.6386 135.914 82.9316C136.053 82.5859 136.227 82.2424 136.366 81.8968C135.732 81.7898 135.079 81.6985 134.429 81.5737Z" fill="#794B48"/>
<path d="M61.3505 87.5321C60.6342 88.196 59.9325 88.0848 59.2287 88.0072C59.503 88.7498 59.8949 89.2298 60.4663 89.2654C60.9904 88.7075 61.5323 88.1339 62.0721 87.5939C62.0269 87.5067 61.9817 87.4195 61.9365 87.3324C61.7411 87.219 61.5395 87.2064 61.3505 87.5321Z" fill="#E8B175"/>
<path d="M113.024 73.5926C113.85 73.5935 114.677 73.5944 115.502 73.6289C114.441 72.7867 113.225 73.0653 112.029 73.0413C112.244 73.6453 112.658 73.5023 113.024 73.5926Z" fill="#805551"/>
<path d="M131.787 60.3374C131.466 60.3343 131.164 60.3155 130.843 60.3124C130.856 61.1905 129.868 61.6182 130.224 62.6696C130.867 62.1023 131.417 61.3942 131.787 60.3374Z" fill="#EDAE6A"/>
<path d="M111.07 81.6384C111.08 81.4704 111.091 81.3023 111.117 81.1521C110.936 80.2635 110.424 80.0798 109.951 79.8309C109.584 79.4875 109.492 79.8867 109.458 80.4245C109.929 80.9937 110.357 81.6953 111.07 81.6384Z" fill="#7F5451"/>
<path d="M114.273 83.896C114.306 83.6449 114.338 83.3939 114.371 83.1428C114.461 82.2374 114.423 81.2227 113.759 81.5862C113.236 81.8573 113.692 82.6619 113.688 83.269C113.879 83.4496 114.068 83.6639 114.273 83.896Z" fill="#E9C9A7"/>
<path d="M42.4465 61.4012C42.9716 61.0965 43.5514 60.9977 44.0281 59.8464C43.2812 59.648 42.7152 60.3382 42.1438 60.8425C42.0452 61.3425 42.04 61.6965 42.4465 61.4012Z" fill="#67332F"/>
<path d="M42.4483 61.4012C42.3422 61.209 42.2519 61.0347 42.1457 60.8425C41.5082 61.0558 40.982 61.6473 40.4811 62.3753C40.5852 62.6011 40.7228 62.829 40.8268 63.0549C41.3666 62.5148 41.9085 61.9412 42.4483 61.4012Z" fill="#784B47"/>
<path d="M46.2093 58.4968C46.119 58.3224 46.0107 58.1638 45.9204 57.9895C45.4036 58.1597 44.8984 58.4151 44.4343 59.3647C45.1234 59.6776 45.6443 58.9002 46.2093 58.4968Z" fill="#693532"/>
<path d="M141.853 92.0419C141.784 92.6112 141.715 93.1805 141.661 93.7677C142.822 94.903 142.278 92.2708 142.875 92.1562C142.541 92.1016 142.189 92.0628 141.853 92.0419Z" fill="#9F562E"/>
<path d="M126.65 97.7771C126.368 97.7088 126.103 97.6249 125.982 97.128C125.219 97.1986 125.18 98.0903 125.108 98.9801C125.662 98.7447 126.201 98.4914 126.65 97.7771Z" fill="#F2BF81"/>
<path d="M139.046 84.6452C138.795 83.5329 138.401 83.0865 137.372 83.6129C138.154 84.0666 138.608 84.3648 139.046 84.6452Z" fill="#977472"/>
<path d="M164.687 93.1107C164.458 94.075 164.245 95.0572 164.017 96.0215C164.476 95.1391 165.825 94.6157 164.687 93.1107Z" fill="#F5CE95"/>
<path d="M63.1206 90.5443C62.8556 88.8406 62.0134 89.9017 61.3863 89.947C61.6921 90.7252 62.2467 90.4899 62.7309 90.5707C62.8496 90.5612 62.9862 90.5359 63.1206 90.5443Z" fill="#F6D1A1"/>
<path d="M145.408 88.08C144.993 86.89 144.199 87.7179 143.612 87.3776C144.076 88.3345 144.789 87.9909 145.428 88.0307L145.408 88.08Z" fill="#825855"/>
<path d="M109.459 80.4232C109.624 80.2142 109.787 80.0387 109.951 79.8297C109.582 79.2667 109.247 78.6722 108.612 78.852C108.501 80.0936 109.057 80.1113 109.459 80.4232Z" fill="#815653"/>
<path d="M116.769 73.8777C116.371 74.0385 115.989 74.2171 115.591 74.3779C115.979 74.9251 116.487 74.8893 116.973 74.9364C117.224 74.969 117.474 74.7483 117.417 74.3229C117.363 73.8303 117.06 73.8114 116.769 73.8777Z" fill="#805551"/>
<path d="M53.0961 55.9392C52.8892 55.7407 52.6801 55.5758 52.4731 55.3773C52.1507 55.4079 51.9165 55.6464 51.7485 56.1758L51.7128 56.2073C51.9714 57.4719 52.4744 56.7103 52.9386 56.3006C52.9628 56.184 53.0205 56.0695 53.0961 55.9392Z" fill="#68352F"/>
<path d="M150.032 97.0237C149.782 96.1645 149.439 95.4513 148.832 95.1605C148.965 96.2823 149.273 97.027 150.032 97.0237Z" fill="#FAE4C7"/>
<path d="M141.265 86.0835C141.365 86.9164 141.933 87.0193 142.126 86.6264C142.414 86.0539 141.864 86.222 141.689 86.0592C141.594 85.9521 141.447 85.6055 141.265 86.0835Z" fill="#7D514D"/>
<path d="M147.101 88.7764C147.1 88.5232 147.101 88.2365 147.1 87.9833C146.524 88.015 145.982 88.0487 145.407 88.0803L145.445 88.0152C145.739 89.2483 146.562 88.4897 147.101 88.7764Z" fill="#7E5350"/>
<path d="M73.2255 81.1191C73.3979 82.1422 73.8916 82.3417 74.5051 82.2449C74.1951 81.5339 73.7612 81.1862 73.2255 81.1191Z" fill="#F6D1A0"/>
<path d="M65.1541 87.7018C65.1415 87.9035 65.1132 88.0873 65.0828 88.3048C65.1501 88.8489 65.3151 89.1797 65.7016 88.9339C65.948 86.874 66.7173 88.6091 67.1562 88.0628C67.6927 86.7634 68.5729 86.1771 69.2723 85.2421C69.6041 84.7904 70.5242 84.6452 69.8381 83.4721C69.8066 83.4364 69.8643 83.3218 69.9452 83.3775C70.3476 83.6894 70.7342 83.9834 71.2152 83.3048C70.5763 82.1852 70.4152 80.1674 69.1075 80.3052C68.7695 81.3977 68.2349 82.1236 67.5512 82.5366C67.2415 83.4452 67.0292 82.5209 66.7697 82.6229C66.4726 83.3298 66.811 84.397 65.7817 84.6703C64.2534 85.0981 64.1716 85.8691 65.1541 87.7018Z" fill="#F3C58C"/>
<path d="M88.4825 81.2768C88.4416 81.6623 88.4658 82.0856 88.344 82.4155C87.501 84.8431 87.9538 85.4281 89.3938 84.7923C89.7068 84.6431 90.0744 84.1599 90.3948 84.7029C89.9118 85.4151 89.1892 86.18 90.2072 86.9014C90.5308 87.124 90.5403 87.7826 90.469 88.3856C91.6172 88.6427 92.3596 87.2886 93.1608 86.0731C91.9051 83.7509 89.7003 83.6642 88.4825 81.2768Z" fill="#A96A41"/>
<path d="M95.3351 85.5844C96.5603 82.4382 96.5057 82.2323 94.4552 82.1046C93.3618 82.0533 92.2662 82.0356 91.1727 81.9844C92.4849 83.399 93.5557 85.4397 95.3351 85.5844Z" fill="#B46D3D"/>
<path d="M65.1575 87.7017C64.6318 85.3069 64.6318 85.3069 67.6201 84.7339C67.872 83.3998 66.5192 83.9904 66.8067 82.6248C66.2437 82.4547 65.5579 83.4412 65.1082 82.5358C65.082 82.686 65.0379 82.852 65.0117 83.0022C64.7934 84.3384 64.2063 84.8248 63.4679 85.0319C62.6266 85.2663 62.1037 86.0773 62.0451 87.5584L62.0609 87.5762C62.6911 87.7505 63.7516 85.3533 64.0294 87.9351C64.0368 88.0874 64.7636 87.7953 65.1575 87.7017Z" fill="#E8B175"/>
<path d="M86.4974 55.8109C84.6496 55.4089 82.8629 55.6519 81.3183 58.5082C83.5146 57.6496 85.695 56.7732 87.8913 55.9146C87.8303 55.8096 87.803 55.7066 87.742 55.6016C87.3439 55.2225 86.9279 55.399 86.4974 55.8109Z" fill="#B67F59"/>
<path d="M114.681 61.936C113.74 62.4173 114.568 64.291 113.658 64.808C114.317 65.8782 115.399 64.2247 116.105 65.3485C115.712 64.0755 116.577 62.6447 116.126 61.4862C115.645 61.6249 115.146 61.7794 114.681 61.936Z" fill="#C3824F"/>
<path d="M87.0089 57.615C87.1571 58.2147 87.3389 58.8166 87.4872 59.4163C88.2531 60.392 89.1783 59.353 89.9881 59.0829C90.9009 58.7855 90.2872 57.8024 90.1611 57.1197C90.0297 56.7909 89.8605 56.5273 89.6515 56.3624C89.4876 56.2847 89.3332 56.3257 89.1725 56.4675C88.4394 56.8605 87.7242 57.2377 87.0089 57.615Z" fill="#AB6531"/>
<path d="M89.1714 56.4676C89.288 56.4917 89.4046 56.5158 89.5212 56.54C90.1106 57.0997 90.7028 56.2593 91.3183 56.1289C91.4748 56.0543 91.6313 55.9797 91.7899 55.8715C92.5219 55.2254 93.4105 55.0445 93.8231 53.5686C93.8577 53.284 93.7852 53.0939 93.6234 52.9826C93.0919 52.8482 92.5394 53.05 91.9827 53.319C91.5248 53.6279 91.0963 54.0061 90.6405 54.2814C90.1112 54.6533 89.5534 54.6692 89.0335 55.1598C88.9023 55.371 88.854 55.6042 88.8709 55.8752C88.9591 56.0831 89.0653 56.2754 89.1714 56.4676Z" fill="#7E4633"/>
<path d="M117.556 60.9179C116.915 62.2783 117.104 63.0324 117.985 63.2392C118.49 62.9839 118.995 62.7285 119.572 62.4102C118.945 61.9155 118.183 61.9524 117.881 60.8538C117.796 60.8653 117.677 60.8748 117.556 60.9179Z" fill="#DE9E60"/>
<path d="M120.554 59.1645C120.752 58.7044 121.023 58.6875 121.276 58.6864C121.391 58.9973 121.512 58.9542 121.638 58.5572C121.571 58.0131 121.537 57.4711 121.47 56.927C120.405 56.6919 120.28 57.882 120.167 59.1572C120.319 59.1498 120.453 59.1582 120.554 59.1645Z" fill="#E9A159"/>
<path d="M88.8736 55.8744C88.9177 55.7084 88.9618 55.5424 88.988 55.3922C89.2663 54.9878 89.7557 54.7146 89.3627 53.9815C88.68 54.1076 87.7734 53.7643 87.881 55.8294L87.8768 55.8966C88.2129 55.9176 88.5354 55.887 88.8736 55.8744Z" fill="#C88D56"/>
<path d="M96.1689 86.8841C96.275 87.0764 96.3791 87.3022 96.4852 87.4944C96.5546 88.0049 96.7217 88.3021 97.0757 88.3073C97.4265 88.0929 97.8561 87.9679 97.8591 87.1076C97.4346 86.8787 97.0102 86.6498 96.5858 86.4208C96.4588 86.5648 96.3138 86.7245 96.1689 86.8841Z" fill="#6A3630"/>
<path d="M121.913 59.3335C122.779 60.6023 123.487 62.2324 124.624 62.9443C124.662 62.8792 124.735 62.7825 124.739 62.7153C124.708 62.1397 125.002 61.2132 125.323 60.9295C125.537 60.7404 125.706 60.4641 125.648 60.0387C125.143 59.7542 125.175 58.71 124.834 58.2164C123.893 59.2376 122.829 57.6359 121.913 59.3335Z" fill="#DF9149"/>
<path d="M128.063 60.19C128.15 59.065 127.883 58.4747 127.231 58.3835C126.807 58.9476 126.418 59.5138 125.995 60.078C125.989 61.2586 125.731 62.4068 125.609 63.5633L125.589 63.6127C126.892 64.0819 127.746 63.6459 127.513 60.8981C127.505 60.7458 127.88 60.4148 128.063 60.19Z" fill="#DF9149"/>
<path d="M125.61 63.5635C126.658 62.4477 126.631 61.265 125.996 60.0782C125.878 60.0876 125.777 60.0814 125.642 60.073C125.23 61.009 124.518 60.2391 124.034 61.2382C123.986 62.0113 124.904 61.8998 124.618 62.9786C124.605 63.1803 124.577 63.3641 124.564 63.5658C124.902 63.5531 125.256 63.5583 125.61 63.5635Z" fill="#DA8740"/>
<path d="M127.783 56.6288C128.173 57.6823 128.989 57.3113 129.593 57.6358C130.557 58.1514 130.832 56.9875 130.682 55.5947C130.3 55.7733 129.951 55.954 129.569 56.1327C128.985 56.8387 128.381 55.9743 127.783 56.6288Z" fill="#EDAE6A"/>
<path d="M120.765 56.023C121.4 56.3832 121.726 57.652 122.613 56.9649C122.666 56.9176 122.717 56.364 122.641 56.2412C122.149 55.4682 121.613 54.8611 120.765 56.023Z" fill="#E9A159"/>
<path d="M121.912 59.3327C122.863 58.1434 123.923 59.8123 124.83 58.2492C123.784 58.2514 122.741 57.9334 121.639 58.5565C121.519 58.5995 121.398 58.6426 121.277 58.6857C121.362 59.2141 121.645 59.2823 121.912 59.3327Z" fill="#B16F42"/>
<path d="M117.346 57.547C117.497 57.8263 117.577 58.1688 117.662 58.1572C117.866 58.1361 118.161 58.0027 118.295 57.7579C118.523 57.3335 118.305 57.0499 118.068 57.0689C117.879 57.1078 117.661 57.3641 117.346 57.547Z" fill="#EDAB65"/>
<path d="M127.78 56.6297C128.377 56.5151 128.967 57.0748 129.565 56.1336C128.968 56.2482 128.378 55.6884 127.78 56.6297Z" fill="#E8A15A"/>
<path d="M93.7446 53.2594C93.2553 54.6125 92.2711 54.433 91.6998 55.4772C92.1465 56.703 92.9479 56.5673 93.7756 56.2814C93.5961 57.2657 93.0226 57.2637 92.6729 57.7312C92.1027 58.4886 91.9043 59.2355 92.6859 59.6892C93.3223 58.6827 93.9034 59.9169 94.6354 59.2707C96.2443 57.8188 96.0076 55.9312 95.7772 53.9429C95.3232 52.5648 94.5428 52.9043 93.7446 53.2594Z" fill="#DD9344"/>
<path d="M92.67 59.6711C92.4263 59.251 92.4377 58.2563 92.6688 58.3382C94.0617 58.7287 94.0318 56.4997 94.894 55.3893C93.7206 54.9956 92.5865 56.4097 91.6819 55.4928C91.5811 55.4865 91.496 55.4981 91.4088 55.5433C91.0781 56.2482 91.2221 56.9151 91.281 57.5937C91.2958 57.8983 91.5028 58.0968 91.4283 58.4802C92.026 58.9055 91.6955 60.6902 92.5337 60.7762C92.5588 60.3728 92.6312 60.023 92.67 59.6711Z" fill="#D2853A"/>
<path d="M93.7413 53.2582C94.4251 53.3852 95.2213 53.0636 95.7582 53.9238C95.8663 53.5424 96.8852 53.4372 96.0132 52.8092C95.5773 52.4953 95.0111 52.6456 94.509 52.5805C94.2874 52.6173 94.0658 52.6541 93.8441 52.691C93.6498 52.8307 93.6057 52.9967 93.7413 53.2582Z" fill="#7D4532"/>
<path d="M100.916 51.2421C101.113 51.0687 101.325 50.9132 101.503 50.7556C101.431 50.5655 101.385 50.2252 101.268 50.2011C100.821 50.0552 100.669 50.6024 100.564 51.2033C100.681 51.2274 100.798 51.2516 100.916 51.2421Z" fill="#EEAF5D"/>
<path d="M144.168 71.4842C143.975 71.8771 143.782 72.27 143.606 72.6471C143.3 73.2354 143.106 73.9151 143.29 74.4833C143.573 75.3446 143.957 74.3393 144.303 74.1922C145.048 73.8842 144.578 74.648 144.502 75.065C145.236 74.9252 145.95 74.2948 146.824 74.3492C144.92 74.3149 146.721 71.1371 145.718 70.4336C145.125 70.4809 144.627 70.8886 144.168 71.4842Z" fill="#F1BE80"/>
<path d="M144.149 71.4998C144.748 71.6383 145.296 71.5038 145.683 70.4313C145.579 69.6655 146.768 68.4574 145.61 68.0815C144.939 68.8327 144.298 69.6532 143.918 70.878C143.99 71.0681 144.061 71.2918 144.149 71.4998Z" fill="#EDB26F"/>
<path d="M71.2299 83.3229C70.3708 83.573 69.7654 81.9156 68.7069 83.1994C68.7984 84.1668 69.4611 83.5501 69.7028 84.0038C68.972 85.443 67.2429 85.0316 67.2214 87.8141C68.006 87.4074 67.4632 88.8077 67.7867 89.0303C67.9486 89.6816 68.2374 89.109 68.4769 89.0565C68.9041 87.8852 69.3335 86.6803 70.1895 86.2106C70.1189 84.9071 71.06 84.4258 71.2299 83.3229Z" fill="#F4CB97"/>
<path d="M67.7906 89.031C67.8545 88.2757 68.139 87.2305 67.2253 87.8147C66.7138 88.1709 65.7407 85.9169 65.7223 88.9189C66.4387 88.7949 66.9023 90.8315 67.7906 89.031Z" fill="#F6D1A1"/>
<path d="M70.1914 86.2111C68.7848 85.7691 68.6171 87.3784 68.4787 89.0569C69.1834 88.3079 69.8093 87.4695 70.1914 86.2111Z" fill="#F6D1A1"/>
<path d="M65.7196 88.9173C65.5126 88.7188 65.2899 88.5025 65.1008 88.2883C64.6093 88.5951 64.3027 89.1833 64.2167 90.0216C64.8018 90.1087 65.3501 89.9741 65.7196 88.9173Z" fill="#F6D1A1"/>
<path d="M99.8907 88.1105C99.9295 87.7586 99.9683 87.4067 100.025 87.039C99.5542 86.4698 99.0763 86.2882 98.5996 87.4395C98.6165 87.7105 98.6869 87.9342 98.8108 88.1107C99.126 88.4677 99.4591 88.8091 99.8907 88.1105Z" fill="#E5AA6D"/>
<path d="M98.8487 87.6921C98.7521 87.6186 98.6554 87.5451 98.5766 87.4558C98.3476 87.3403 98.085 87.2227 97.856 87.1072C97.6019 87.3951 97.3477 87.6829 97.0936 87.9708C97.3143 88.7606 97.7691 88.7721 98.2659 88.6512C98.5789 88.502 98.8289 88.2814 98.8487 87.6921Z" fill="#7C4637"/>
<path d="M95.6221 92.1309C95.1337 92.1173 94.723 92.4798 94.4553 93.2561C96.3574 92.2442 98.1926 92.8478 100.077 92.3916C100.18 92.3643 100.348 92.3747 100.391 92.4955C102.015 97.034 104.601 92.6229 106.689 92.6855C105.503 92.4935 104.767 90.5074 103.366 91.3311C100.957 88.2791 98.2845 90.289 95.6221 92.1309Z" fill="#F2C187"/>
<path d="M138.329 74.1919C139.321 74.7768 140.232 72.8933 141.212 73.1399C141.297 72.5885 141.366 72.0191 141.433 71.4834C141.079 71.4782 140.725 71.473 140.387 71.4857C139.69 72.3871 138.992 73.2884 138.329 74.1919Z" fill="#D59A65"/>
<path d="M122.641 65.2001C123.296 65.2577 123.991 65.4698 124.496 64.1346C123.851 64.1957 122.96 62.2505 122.641 65.2001Z" fill="#DF9149"/>
<path d="M93.7429 53.2251C93.7376 53.0392 93.7659 52.8553 93.8278 52.6736C92.228 52.0846 90.669 51.1101 88.9141 53.0085L88.8795 53.2932L88.8449 53.5779C88.9521 54.0232 89.3365 53.811 89.4637 54.2069C89.3041 54.6019 89.1445 54.9969 88.9849 55.3919C89.59 55.4296 90.2129 55.4515 90.7673 54.6762C91.0802 53.9871 91.4783 53.8263 91.9216 53.7527C92.5234 53.5709 93.141 53.4069 93.7429 53.2251Z" fill="#DC9B52"/>
<path d="M158.814 95.7487C159.257 94.0554 160.14 92.0689 157.976 92.6764C157.117 92.9266 157.111 91.1209 156.635 90.3658C156.055 90.4646 155.313 90.199 155.542 91.9342C155.585 92.055 155.682 92.1285 155.687 92.3145C155.608 92.2252 155.529 92.1359 155.504 91.9994C155.265 91.512 155.031 90.9238 154.529 91.3987C154.206 91.716 154.145 92.1509 154.317 92.634C154.654 94.2747 154.437 96.4039 155.523 97.3827C155.872 98.8217 156.123 98.8542 157.063 97.5799C157.264 96.5126 156.908 96.0011 156.234 95.453C157.067 95.8929 157.806 95.3991 158.402 95.858C158.53 95.9672 158.684 95.9262 158.814 95.7487Z" fill="#E48F41"/>
<path d="M154.324 92.6008C155.044 90.2498 155.241 92.776 155.704 92.653C155.833 92.4755 155.846 92.2738 155.773 92.0837C155.424 90.6447 156.477 91.0815 156.658 90.3504C156.897 89.7579 157.495 89.6433 157.484 88.7315C156.706 88.4974 155.826 88.797 155.204 87.9484C154.48 89.2867 153.755 90.6251 152.997 91.9613C153.44 92.1745 153.882 92.3876 154.324 92.6008Z" fill="#E08A3E"/>
<path d="M156.964 96.8467C156.523 98.5065 156.038 98.1725 155.514 97.3638C155.051 97.4868 154.597 97.7285 155.161 98.4384C155.442 98.7934 155.645 99.0591 155.605 99.6978C156.247 99.4172 156.898 99.2553 157.499 98.8203C157.957 98.5114 158.841 98.3978 158.36 96.9169C157.916 97.2772 157.931 96.7552 157.909 96.2983C157.881 95.9422 157.839 95.5346 157.546 95.6345C157.148 95.7953 156.891 96.1167 156.964 96.8467Z" fill="#E89C4E"/>
<path d="M71.2511 49.2264C71.2794 49.0425 71.292 48.8409 71.3203 48.657C70.4622 49.1603 69.6295 50.3401 68.727 49.3896C68.2994 48.9412 68.0307 50.0043 67.662 50.2344C66.5876 50.9604 65.3838 50.7841 64.3989 52.5112C64.0009 53.2119 63.2845 53.336 62.9062 52.3676C62.8054 52.3613 62.6709 52.3529 62.5522 52.3624C62.2509 53.1366 61.8277 53.7007 61.3162 54.0569C60.3437 55.0424 60.867 55.8511 61.2043 56.6651C61.4365 57.0001 61.6508 57.3509 62.0415 57.0378C62.1602 57.0283 62.2768 57.0525 62.3955 57.043C62.5896 55.8234 63.121 54.878 63.7796 54.8684C66.0579 54.8585 68.0753 52.5378 70.2284 51.5584C71.1317 51.1423 71.184 50.302 71.2511 49.2264Z" fill="#F2C186"/>
<path d="M95.6181 92.1302C97.1726 91.5522 98.766 91.1622 100.301 90.3468C101.068 89.9559 101.487 90.5388 102.046 90.7761C102.491 90.9556 102.73 91.9829 103.379 91.3147C103.453 90.6781 103.479 89.988 103.925 89.594C104.148 87.6507 102.546 88.1752 102.528 86.5712C102.469 86.4326 102.388 86.3769 102.319 86.4064C102.231 86.4515 102.211 86.5009 102.192 86.5503C101.671 87.3277 102.211 88.4074 101.616 89.2814C101.167 88.916 100.715 88.5841 100.265 88.2187C99.6048 88.8018 99.0784 88.3134 98.4776 88.2085C98.027 88.1298 97.5942 88.0354 97.1435 87.9567C96.9345 87.7918 96.7412 87.6448 96.5321 87.4799C95.6565 89.6187 94.2392 88.265 93.2259 89.6359C92.8583 90.1192 92.3867 90.3766 91.9761 90.7391C93.2555 90.7851 94.9463 89.102 95.6181 92.1302Z" fill="#EBB170"/>
<path d="M98.4282 88.2237C98.9661 88.7971 99.5124 89.2361 100.216 88.2339C100.099 88.2097 100.001 88.1698 99.8861 88.1121C99.5405 87.9724 99.1949 87.8328 98.8493 87.6932C98.7202 87.8707 98.5752 88.0304 98.4282 88.2237Z" fill="#935D45"/>
<path d="M102.147 86.5653C102.265 86.5558 102.366 86.5621 102.483 86.5862C102.514 86.082 102.51 85.6094 102.18 85.4876C102.081 85.4477 101.914 85.6904 101.773 85.7828C101.909 86.0443 102.045 86.3059 102.147 86.5653Z" fill="#DB9657"/>
<path d="M119.44 87.3717C120.122 88.0722 120.87 88.5237 121.697 88.7778C122.422 87.9793 122.736 87.0035 122.39 85.784C121.293 84.9733 120.358 86.1804 119.44 87.3717Z" fill="#C67B42"/>
<path d="M119.257 88.6776C119.031 89.8615 117.535 89.4983 117.938 91.4299C119.258 91.0904 120.561 90.7666 121.881 90.4271C121.171 89.3705 120.149 89.2562 119.257 88.6776Z" fill="#C2753E"/>
<path d="M123.879 91.1417C124.481 89.8801 125.332 88.6846 124.691 87.0587L124.655 87.0902C124.233 87.9075 123.794 87.9138 123.262 87.7795C122.713 87.6609 122.101 87.724 122.045 89.1715C122.266 89.4215 122.486 89.6714 122.689 89.9371C123.28 89.9234 123.459 90.8456 123.879 91.1417Z" fill="#CE8A50"/>
<path d="M55.9024 53.7185C55.0539 54.8804 54.0477 55.3239 53.0983 55.9396L53.1256 56.0425C52.9786 56.2358 52.9324 56.4354 53.0028 56.6591C53.1289 56.8019 53.2655 56.7767 53.3946 56.5992C54.7842 56.2302 55.9062 57.1775 57.0566 57.9409C57.1753 57.9314 57.2919 57.9556 57.4106 57.9461C57.6332 57.6225 57.7907 57.2611 57.903 56.8126C58.5442 53.8325 57.0874 54.1973 56.1535 53.751C56.0705 53.729 55.9875 53.7069 55.9024 53.7185Z" fill="#CF935E"/>
<path d="M56.1505 53.7843C56.1865 55.3725 58.5276 53.8144 57.5324 56.7893C57.9106 57.2178 58.3601 57.0433 58.817 57.0212C59.3968 56.9223 59.9746 56.8571 60.3126 55.7646C60.4415 53.9674 59.7618 53.7732 58.9268 53.9067C58.3637 53.7367 57.6579 54.2326 57.2775 53.2978C56.9192 52.8199 56.7408 53.5174 56.5045 53.7895C56.3522 53.7969 56.2514 53.7906 56.1505 53.7843Z" fill="#DCA168"/>
<path d="M58.8969 53.9044C59.2604 54.5682 60.1931 54.2214 60.0989 55.734C60.4729 56.2297 60.5425 57.82 61.4256 56.3734C61.3036 55.6235 60.7836 55.0343 61.3349 54.0395C60.8905 53.8599 60.1406 54.5218 60.2632 52.8254C60.3334 51.9693 59.7316 52.1511 59.3493 52.3298C58.759 52.5967 58.8022 53.2574 58.8969 53.9044Z" fill="#EAB477"/>
<path d="M56.457 53.8035C56.7207 53.6343 56.9843 53.4652 57.23 53.3118C57.397 53.0691 57.5818 52.8107 57.7509 52.5344C57.7509 52.5344 57.6353 52.2235 57.5996 52.255C57.1122 52.4946 56.607 52.7499 56.457 53.8035Z" fill="#B67D54"/>
<path d="M124.35 97.0424C124.235 97.2714 124.052 97.4963 124.044 97.6307C124.049 97.8166 124.202 98.0624 124.319 98.0865C124.552 98.1348 124.768 97.9121 124.746 97.4552C124.723 97.285 124.508 97.221 124.35 97.0424Z" fill="#F2BF81"/>
<path d="M140.124 67.2348C140.131 68.2138 140.139 69.1592 140.146 70.1381C140.265 70.1287 140.399 70.1371 140.518 70.1276C142.868 67.6083 140.178 68.2674 140.124 67.2348Z" fill="#D7975D"/>
<path d="M62.0582 87.5764C62.6484 86.7696 62.9275 84.9986 64.0211 85.5897C64.1198 85.6296 65.689 84.8163 65.0248 83.0203C64.8052 83.0235 64.5857 83.0267 64.3326 83.0278C64.022 84.7631 63.2688 84.6655 62.4915 84.6846C61.9338 84.7004 61.2257 84.1502 60.872 85.7647C61.0381 86.3487 61.1863 86.9484 61.3681 87.5503C61.5877 87.5471 61.8229 87.5618 62.0582 87.5764Z" fill="#DB9D60"/>
<path d="M158.814 95.7485C158.713 95.7422 158.578 95.7338 158.478 95.7275C158.183 95.5742 158.036 95.7675 158.07 96.3095C159.427 96.7315 160.604 95.725 161.624 93.9665C162.456 92.5336 161.509 93.1157 161.234 92.913C161.005 92.7975 160.759 92.6977 160.514 92.5644C161.058 95.1966 159.169 94.3871 158.814 95.7485Z" fill="#E89C4E"/>
<path d="M143.51 99.1308C143.52 98.9627 143.513 98.8104 143.539 98.6602C142.877 98.4502 142.249 98.7823 141.706 99.6427C142.308 99.4608 142.91 99.279 143.51 99.1308Z" fill="#E4A25F"/>
<path d="M158.076 96.3101C158.223 96.1168 158.336 95.9214 158.483 95.7281C157.947 93.5014 156.716 95.9217 155.867 95.4639C156.244 95.926 156.604 96.3703 156.98 96.8324C157.213 96.3408 157.485 95.4972 157.701 96.6411C157.827 97.3238 157.967 97.5181 158.342 96.9004C158.252 96.7261 158.164 96.5181 158.076 96.3101Z" fill="#E7974A"/>
<path d="M53.3931 56.6C53.2765 56.5759 53.1757 56.5696 53.0412 56.5612C52.3437 56.3828 51.7892 57.1581 51.1843 57.6603C51.7562 60.3954 53.4135 59.2502 54.6352 59.4106C55.3033 59.5198 55.0237 58.5913 54.8755 57.9915C54.5843 56.9779 53.6706 57.5621 53.3931 56.6Z" fill="#B37247"/>
<path d="M122.075 89.1727C122.452 88.2682 122.949 87.8606 123.434 88.4813C124.513 89.8477 124.495 88.2437 124.684 87.0914C124.317 87.0347 123.907 87.1104 123.747 86.4256C123.305 86.2124 122.881 85.9835 122.438 85.7704C122.208 86.7683 121.977 87.7662 121.746 88.7642C121.838 88.9049 121.949 89.0299 122.075 89.1727Z" fill="#BF733B"/>
<path d="M89.4654 54.2076C89.3781 53.7129 89.1313 53.6132 88.8466 53.5786C87.7856 53.2762 86.8319 53.4193 86.4973 55.8111C86.9521 55.8226 87.4248 55.8183 87.8796 55.8297C88.163 54.5314 88.8299 54.3874 89.4654 54.2076Z" fill="#C5874C"/>
<path d="M61.4078 56.3899C60.7409 57.0738 60.6755 55.4163 60.081 55.7504C59.6232 56.5992 59.1084 56.196 58.6316 56.2675C58.4418 57.9597 59.7779 58.1779 59.608 59.8208C60.7278 59.7219 61.9883 60.0704 62.0108 57.0011C61.8217 56.7868 61.6148 56.5883 61.4078 56.3899Z" fill="#E0B284"/>
<path d="M59.6236 59.8392C60.4761 57.5303 58.6379 57.7869 58.6471 56.2859C58.2827 56.4488 57.9003 56.6274 57.5516 56.8081C57.5107 57.1936 57.4699 57.5791 57.4111 57.9804C58.1181 58.2775 59.8206 57.2195 58.5302 60.3279C58.8789 60.1471 59.2434 59.9842 59.6236 59.8392Z" fill="#D8A779"/>
<path d="M91.4077 58.4278C91.6555 58.2408 91.7017 58.0412 91.479 57.8248C91.1531 56.556 90.6142 56.2693 89.7982 57.1802C90.0432 58.3934 90.0211 58.4763 89.4634 58.4922C88.7691 58.5333 88.1832 59.8128 87.4667 59.397C87.3271 59.7426 87.1696 60.1039 87.03 60.4496C88.5488 60.443 90.0277 59.9952 91.4077 58.4278Z" fill="#BE7436"/>
<path d="M143.011 96.7705C142.804 96.572 142.615 96.3578 142.408 96.1593C142.396 96.361 142.367 96.5448 142.355 96.7465L142.338 97.0154L142.321 97.2843C142.645 97.5069 142.984 97.7474 143.325 97.9543C143.232 97.5604 143.123 97.1486 143.011 96.7705Z" fill="#854A35"/>
<path d="M140.193 94.3014C139.983 94.9631 139.773 95.6249 139.561 96.3203C140.19 96.2414 140.786 96.1605 141.415 96.0816C140.995 95.4987 140.594 94.9 140.193 94.3014Z" fill="#8D4220"/>
<path d="M141.669 93.7353C141.328 93.5284 141.02 93.3237 140.679 93.1168C140.832 93.9025 141.099 94.4928 141.531 94.874C141.588 94.5063 141.628 94.1208 141.669 93.7353Z" fill="#9F562E"/>
<path d="M51.1851 57.6599C51.8152 57.2943 52.4118 56.9265 53.042 56.5609C53.0703 56.3771 53.0808 56.209 53.1091 56.0252C52.6501 56.0809 52.1732 56.1524 51.6984 56.1903C51.5451 56.4845 51.3918 56.7786 51.2385 57.0728C51.226 57.2744 51.1976 57.4583 51.1851 57.6599Z" fill="#BD8258"/>
<path d="M89.8156 57.1996C90.4448 57.1207 91.0257 57.275 91.4963 57.8443C91.6496 57.0102 91.579 56.2466 91.4056 55.5103C90.7933 55.8602 90.1473 56.208 89.535 56.5579C89.6233 56.7658 89.7116 56.9738 89.8156 57.1996Z" fill="#C88649"/>
<path d="M91.9367 53.7371C91.3242 53.0072 90.922 53.2352 90.7825 54.6606C91.2121 54.5355 91.6123 54.3412 91.9367 53.7371Z" fill="#C88D56"/>
<path d="M155.771 92.0834C155.743 92.2673 155.73 92.4689 155.702 92.6528C155.823 93.1496 156.036 93.2472 156.344 92.9121C156.578 92.6736 156.684 92.3259 156.519 91.9951C156.309 91.577 156.015 91.9636 155.771 92.0834Z" fill="#E7974A"/>
</g>
<defs>
<clipPath id="clip0_386_28720">
<rect width="122.667" height="120" fill="white" transform="translate(171.377 89.9668) rotate(138.566)"/>
</clipPath>
</defs>
</svg>
