<svg width="16" height="16" viewBox="0 0 16 16" fill="none" xmlns="http://www.w3.org/2000/svg">
<path d="M12.4439 11.5646L15.8698 14.9177C16.0434 15.0876 16.0434 15.3631 15.8698 15.5329C15.6963 15.7028 15.4149 15.7028 15.2413 15.5329L11.8154 12.1798C10.5617 13.263 8.91485 13.9203 7.11111 13.9203C3.18375 13.9203 0 10.8041 0 6.96016C0 3.11617 3.18375 0 7.11111 0C11.0385 0 14.2222 3.11617 14.2222 6.96016C14.2222 8.72561 13.5507 10.3375 12.4439 11.5646ZM7.11111 13.0503C10.5475 13.0503 13.3333 10.3236 13.3333 6.96016C13.3333 3.59667 10.5475 0.87002 7.11111 0.87002C3.67467 0.87002 0.888889 3.59667 0.888889 6.96016C0.888889 10.3236 3.67467 13.0503 7.11111 13.0503Z" fill="white"/>
</svg>
